<?xml version="1.0" encoding="utf-8" ?><svg xmlns="http://www.w3.org/2000/svg" xmlns:xlink="http://www.w3.org/1999/xlink" width="511" height="341" viewBox="0 0 511 341"><path fill="#FEFEFE" transform="scale(0.409455 0.409856)" d="M0 0L1039.07 0L1043.43 0L1073.15 0L1081.86 0L1128.05 0L1131.68 0L1176.5 0L1183.88 0L1214.84 0L1219.07 0L1248 0L1248 19.9617L1248 22.7649L1248 39.7819L1248 44.8574L1248 163.138L1248 165.229L1248 280.348L1248 283.178L1248 284.413L1248 288.116L1248 303.865L1248 307.199L1248 492.566L1248 494.905L1248 514.846L1248 517.207L1248 653.241L1248 657.741L1248 739.324L1248 741.293L1248 832L1183.39 832L1181.35 832L1117.66 832L1115.67 832L1060.54 832L1058.59 832L1007.28 832L1005.43 832L938.497 832L936.241 832L920.39 832L916.796 832L868.704 832L867.094 832L800.397 832L798.626 832L781.921 832L779.979 832L464.908 832L441.219 832L0 832L0 355.839L0 353.732L0 59.088L0 56.63L0 42.8038L0 40.5576L0 0Z"/><path fill="#1B1B3B" transform="scale(0.409455 0.409856)" d="M0 59.088L6.52935 57.5154C17.1187 68.149 30.4867 82.4397 41.2135 92.2924C43.0652 92.6918 43.8666 93.0254 45.647 93.719C61.6702 109.962 80.6343 131.181 96.7422 146.297C110.413 134.358 132.769 114.694 149.361 107.128L150.007 108.827C191.207 85.4636 242.891 69.7242 290.598 70.6781L294.351 70.6864L294.283 80.6512L290.923 80.6943L290.772 83.4163C292.958 83.9457 293.289 83.1084 294.582 83.278C309.869 84.2789 325.3 84.9519 340.377 87.7489C398.999 99.0884 452.269 129.388 491.984 173.983C496.843 179.533 516.569 203.476 518.511 210.326L519.811 211.649C531.284 226.146 543.924 259.79 549.378 277.322C551.163 284.527 554.402 295.595 555.393 302.47C556.973 316.395 558.929 326.82 558.934 340.977C559.753 344.395 559.896 347.94 559.355 351.412L561.643 351.465L561.573 355.358C564.72 355.353 569.18 355.176 572.15 355.807L572.419 355.45L574.146 357.269L574.999 355.126L575.33 355.801C575.084 364.936 572.126 402.695 568.843 410.111C559.892 455.995 537.215 500.542 507.116 536.188C504.394 539.41 494.584 551.057 491.667 552.701L490.483 552.018C489.836 553.443 489.946 552.716 490.152 554.278C534.751 599.17 571.935 665.832 579.599 728.954L580.189 733.623C576.892 734.835 575.974 736.535 574.065 739.405L561.121 739.794L562.47 741.507L546.713 741.551C545.599 768.787 537.57 787.773 517.594 807.127C507.093 817.3 485.04 829.335 470.544 830.139C468.705 830.557 466.262 830.864 464.908 832L441.219 832L0 832L0 355.839L0 353.732L0 59.088Z"/><path fill="#FEFEFE" transform="scale(0.409455 0.409856)" d="M0 353.732L5.65022 353.883C7.43691 354.06 9.20218 353.963 10.4805 354.967C13.4764 355.646 16.8316 355.489 19.9307 355.477C20.2672 380.649 24.074 405.654 31.2433 429.785C53.5257 500.19 99.8787 557.488 165.711 591.688C187.585 602.856 210.774 611.233 234.734 616.623C240.227 618.577 244.729 618.776 250.466 619.359L252.205 617.7C268.341 620.509 274.392 620.172 291.154 619.962C291.587 616.999 291.456 613.632 291.431 610.605L292.364 610.754C292.341 612.909 292.16 618.113 292.511 619.968C340.588 620.611 378.457 609.517 421.054 587.829L421.3 589.557C438.187 580.547 451.385 571.995 466.15 559.453C471.501 554.907 476.742 549.663 482.046 545.296C484.366 547.579 486.924 549.986 489 552.46C465.222 576.17 440.61 591.858 411.008 606.745L413.22 607.942C415.953 607.119 424.199 602.583 427.116 601.043C451.718 588.056 470.426 573.577 490.152 554.278C534.751 599.17 571.935 665.832 579.599 728.954L580.189 733.623C576.892 734.835 575.974 736.535 574.065 739.405L561.121 739.794L562.47 741.507L546.713 741.551C545.599 768.787 537.57 787.773 517.594 807.127C507.093 817.3 485.04 829.335 470.544 830.139C468.705 830.557 466.262 830.864 464.908 832L441.219 832L0 832L0 355.839L0 353.732Z"/><path fill="#1B1B3B" transform="scale(0.409455 0.409856)" d="M454.032 648.464C454.036 644.203 453.565 626.074 454.253 623.54L454.757 623.557C456.232 629.118 455.949 642.223 455.971 648.494C506.689 649.49 545.778 689.089 546.586 739.763L561.121 739.794L562.47 741.507L546.713 741.551C545.599 768.787 537.57 787.773 517.594 807.127C507.093 817.3 485.04 829.335 470.544 830.139C468.705 830.557 466.262 830.864 464.908 832L441.219 832L441.508 830.514L438.916 829.83C396.864 822.907 364.673 786.481 363.744 743.711C359.166 743.661 330.677 744.083 329.241 743.034C332.88 741.268 357.603 741.835 363.782 741.809C363.325 718.017 372.122 694.978 388.318 677.549C405.918 658.781 428.465 649.274 454.032 648.464Z"/><path fill="#FEFEFE" transform="scale(0.409455 0.409856)" d="M469.541 753.598C487.159 767.971 508.077 782.022 525.197 796.496C508.102 815.146 491.578 825.843 465.846 829.181C462.698 829.599 459.026 829.735 455.817 829.933C456.273 808.865 456.793 782.184 455.75 761.273C461.733 757.603 462.588 759.811 469.541 753.598Z"/><path fill="#FEFEFE" transform="scale(0.409455 0.409856)" d="M441.925 755.148C447.066 758.877 448.816 758.826 454.225 761.249L455.75 761.273C456.793 782.184 456.273 808.865 455.817 829.933C459.026 829.735 462.698 829.599 465.846 829.181L466.156 829.836L470.544 830.139C468.705 830.557 466.262 830.864 464.908 832L441.219 832L441.508 830.514L438.916 829.83C439.141 829.66 439.594 828.758 439.764 828.459C418.486 824.223 404.675 816.348 389.36 801.344C406.142 785.837 424.619 770.22 441.925 755.148Z"/><path fill="#3E426E" transform="scale(0.409455 0.409856)" d="M454.225 761.249L455.75 761.273C456.793 782.184 456.273 808.865 455.817 829.933C459.026 829.735 462.698 829.599 465.846 829.181L466.156 829.836L470.544 830.139C468.705 830.557 466.262 830.864 464.908 832L441.219 832L441.508 830.514L438.916 829.83C439.141 829.66 439.594 828.758 439.764 828.459C445.293 829.281 448.487 829.63 454.07 829.794C454.629 807.685 453.149 782.988 454.225 761.249Z"/><path fill="#FEFEFE" transform="scale(0.409455 0.409856)" d="M468.891 729.078C480.632 718.974 492.305 708.794 503.912 698.538C508.014 694.939 519.291 684.695 523.376 682.14C537.418 699.424 545.003 717.05 544.902 739.554C541.959 740.439 528.229 740.104 524.356 740.06C525.559 740.817 526.348 741.4 527.712 741.856L529.334 741.816L544.632 741.649C544.911 761.74 538.465 779.147 526.442 795.099C508.926 781.828 487.07 765.876 470.324 752.135C471.997 748.63 472.271 747.915 473.037 744.119C472.783 742.59 472.97 740.3 473.036 738.688C472.048 734.468 471.146 732.82 468.891 729.078Z"/><path fill="#FEFEFE" transform="scale(0.409455 0.409856)" d="M529.334 741.816L544.632 741.649C544.911 761.74 538.465 779.147 526.442 795.099C508.926 781.828 487.07 765.876 470.324 752.135C471.997 748.63 472.271 747.915 473.037 744.119C475.29 743.081 505.332 744.129 510.935 743.531C515.53 743.041 523.467 742.769 529.334 741.816Z"/><path fill="#9293AC" transform="scale(0.409455 0.409856)" d="M473.036 738.688C473.401 739 473.689 739.439 474.132 739.623C476.236 740.5 534.86 738.551 544.902 739.554C541.959 740.439 528.229 740.104 524.356 740.06C525.559 740.817 526.348 741.4 527.712 741.856L529.334 741.816C523.467 742.769 515.53 743.041 510.935 743.531C505.332 744.129 475.29 743.081 473.037 744.119C472.783 742.59 472.97 740.3 473.036 738.688Z"/><path fill="#7C809E" transform="scale(0.409455 0.409856)" d="M527.712 741.856C521.962 741.894 502.609 741.578 497.187 740.633C499.646 739.491 520.223 739.772 524.356 740.06C525.559 740.817 526.348 741.4 527.712 741.856Z"/><path fill="#FEFEFE" transform="scale(0.409455 0.409856)" d="M450.172 650.632C451.094 650.61 452.286 650.706 453.231 650.751C455.26 653.475 454.164 713.229 454.227 722.233C447.659 724.068 446.468 724.691 441.31 729.152C432.627 721.751 420.361 712.944 411.081 705.872C402.304 699.438 392.527 691.974 383.547 686.045C384.938 684.334 386.368 682.654 387.835 681.006C404.4 662.335 425.22 652.11 450.172 650.632Z"/><path fill="#FEFEFE" transform="scale(0.409455 0.409856)" d="M455.978 650.508C483.595 651.072 503.276 661.466 522.187 680.656C514.408 686.553 503.53 696.536 496.008 703.164C487.209 711.309 477.002 719.804 467.901 727.996C463.552 724.652 461.222 723.992 455.907 722.562C455.546 699.137 455.747 673.924 455.978 650.508Z"/><path fill="#FEFEFE" transform="scale(0.409455 0.409856)" d="M430.076 743.312C438.949 742.897 436.041 746.202 440.276 753.006L440.713 753.702C433.728 760.55 424.923 767.68 417.377 774.199L387.992 800.016L382.842 793.298C371.839 779.074 365.884 761.589 365.919 743.604C387.305 743.62 408.691 743.523 430.076 743.312Z"/><path fill="#FEFEFE" transform="scale(0.409455 0.409856)" d="M382.701 687.545C398.463 697.458 424.906 718.504 440.366 730.252C437.672 733.988 437.218 736.845 436.339 741.318L422.602 741.431C403.657 741.881 384.706 742.013 365.756 741.829C364.875 720.708 371.213 704.656 382.701 687.545Z"/><path fill="#FEFEFE" transform="scale(0.409455 0.409856)" d="M451.471 725.341C457.357 724.105 463.453 726.132 467.429 730.646C471.405 735.159 472.647 741.463 470.68 747.149C468.713 752.834 463.841 757.021 457.926 758.111C448.936 759.767 440.286 753.885 438.519 744.915C436.752 735.944 442.525 727.22 451.471 725.341Z"/><path fill="#FEFEFE" transform="scale(0.409455 0.409856)" d="M10.4805 354.967C13.4764 355.646 16.8316 355.489 19.9307 355.477C20.2672 380.649 24.074 405.654 31.2433 429.785C53.5257 500.19 99.8787 557.488 165.711 591.688C187.585 602.856 210.774 611.233 234.734 616.623C240.227 618.577 244.729 618.776 250.466 619.359C267.686 622.031 273.703 621.498 290.65 622.303L290.714 632.127C285.966 632.059 274.557 631.225 270.453 632.149C264.852 632.194 251.767 630.291 245.71 629.302C190.359 620.271 139.81 595.225 98.8439 557.271C56.9946 518.667 28.1286 468.044 16.2152 412.362C13.1714 398.209 11.3435 389.155 10.7888 374.437C10.3747 368.715 9.99034 362.99 9.63556 357.264L10.4805 354.967Z"/><path fill="#FEFEFE" transform="scale(0.409455 0.409856)" d="M421.3 589.557C438.187 580.547 451.385 571.995 466.15 559.453C471.501 554.907 476.742 549.663 482.046 545.296C484.366 547.579 486.924 549.986 489 552.46C465.222 576.17 440.61 591.858 411.008 606.745C386.141 618.402 359.701 626.352 332.53 630.343C327.85 631.03 320.107 632.28 315.511 631.956C309.293 631.465 299.31 631.973 292.818 632.114L292.809 636.314L292.855 666.719C292.857 670.428 293.031 679.298 292.595 682.678C292.049 678.784 292.266 669.724 292.28 665.504C292.319 656.38 292.296 647.257 292.21 638.134L291.42 637.624C290.806 635.774 290.832 634.079 290.714 632.127L290.65 622.303C273.703 621.498 267.686 622.031 250.466 619.359L252.205 617.7C268.341 620.509 274.392 620.172 291.154 619.962C291.587 616.999 291.456 613.632 291.431 610.605L292.364 610.754C292.341 612.909 292.16 618.113 292.511 619.968C340.588 620.611 378.457 609.517 421.054 587.829L421.3 589.557Z"/><path fill="#1F255E" transform="scale(0.409455 0.409856)" d="M421.054 587.829L421.3 589.557C381.26 610.919 338.368 622.751 292.888 622.182L292.818 632.114L292.809 636.314L292.855 666.719C292.857 670.428 293.031 679.298 292.595 682.678C292.049 678.784 292.266 669.724 292.28 665.504C292.319 656.38 292.296 647.257 292.21 638.134L291.42 637.624C290.806 635.774 290.832 634.079 290.714 632.127L290.65 622.303C273.703 621.498 267.686 622.031 250.466 619.359L252.205 617.7C268.341 620.509 274.392 620.172 291.154 619.962C291.587 616.999 291.456 613.632 291.431 610.605L292.364 610.754C292.341 612.909 292.16 618.113 292.511 619.968C340.588 620.611 378.457 609.517 421.054 587.829Z"/><path fill="#1B1B3B" transform="scale(0.409455 0.409856)" d="M8.30931 374.846L10.7888 374.437C11.3435 389.155 13.1714 398.209 16.2152 412.362C28.1286 468.044 56.9946 518.667 98.8439 557.271C139.81 595.225 190.359 620.271 245.71 629.302C251.767 630.291 264.852 632.194 270.453 632.149C268.343 633.463 265.189 633.21 262.559 633.309C250.679 631.731 239.39 630.347 227.659 627.729C185.307 617.994 145.736 598.718 111.96 571.369C61.5192 530.111 26.5939 472.931 12.9137 409.209C10.7843 399.035 9.38062 385.248 8.30931 374.846Z"/><path fill="#7C809E" transform="scale(0.409455 0.409856)" d="M270.453 632.149C274.557 631.225 285.966 632.059 290.714 632.127C290.832 634.079 290.806 635.774 291.42 637.624L292.21 638.134C292.296 647.257 292.319 656.38 292.28 665.504C292.266 669.724 292.049 678.784 292.595 682.678C292.689 687.457 293.711 697.729 291.346 701.119C289.721 696.959 290.738 645.377 290.7 636.476C284.47 636.5 269.116 634.526 262.559 633.309C265.189 633.21 268.343 633.463 270.453 632.149Z"/><path fill="#0E0E1E" transform="scale(0.409455 0.409856)" d="M291.42 637.624L292.21 638.134C292.296 647.257 292.319 656.38 292.28 665.504C292.266 669.724 292.049 678.784 292.595 682.678C292.689 687.457 293.711 697.729 291.346 701.119C290.962 694.914 291.254 685.492 291.252 679.096C291.191 665.272 291.246 651.447 291.42 637.624Z"/><path fill="#1F255E" transform="scale(0.409455 0.409856)" d="M411.008 606.745L413.22 607.942C381.651 623.428 352.151 629.542 317.742 634.151L315.511 631.956C320.107 632.28 327.85 631.03 332.53 630.343C359.701 626.352 386.141 618.402 411.008 606.745Z"/><path fill="#7C809E" transform="scale(0.409455 0.409856)" d="M292.818 632.114C299.31 631.973 309.293 631.465 315.511 631.956L317.742 634.151C309.011 635.413 301.654 636.388 292.809 636.314L292.818 632.114Z"/><path fill="#3E426E" transform="scale(0.409455 0.409856)" d="M7.2562 355.814L9.63556 357.264C9.99034 362.99 10.3747 368.715 10.7888 374.437L8.30931 374.846C7.3108 371.98 7.29604 359.169 7.2562 355.814Z"/><path fill="#3E426E" transform="scale(0.409455 0.409856)" d="M0 353.732L5.65022 353.883C7.43691 354.06 9.20218 353.963 10.4805 354.967L9.63556 357.264L7.2562 355.814L0 355.839L0 353.732Z"/><path fill="#FEFEFE" transform="scale(0.409455 0.409856)" d="M10.9265 310.218L11.228 314.944L11.6825 315.238L12.0123 315.073C11.1691 330.111 9.52795 337.707 9.73046 353.766C13.0797 353.876 16.5866 354.048 19.9245 354.006C20.0139 339.083 20.4325 330.779 22.7925 315.871L24.2984 317.748C22.7014 331.37 21.6472 340.398 21.772 353.937C51.0258 354.502 82.7138 352.94 111.473 354.002L111.673 355.216C112.283 355.364 114.293 355.647 114.319 356.174C114.923 368.652 116.884 380.732 119.842 392.894C133.392 448.95 173.349 494.914 226.967 516.122C252.328 526.041 265.044 526.075 290.876 529.226C290.758 550.035 290.78 570.846 290.942 591.655C290.972 598.06 290.561 614.699 291.154 619.962C274.392 620.172 268.341 620.509 252.205 617.7L250.466 619.359C244.729 618.776 240.227 618.577 234.734 616.623C210.774 611.233 187.585 602.856 165.711 591.688C99.8787 557.488 53.5257 500.19 31.2433 429.785C24.074 405.654 20.2672 380.649 19.9307 355.477C16.8316 355.489 13.4764 355.646 10.4805 354.967C9.20218 353.963 7.43691 354.06 5.65022 353.883L6.72739 353.638C7.76481 351.655 7.30008 341.987 7.61886 338.744C8.53909 329.384 9.4827 319.485 10.9265 310.218Z"/><path fill="#1B1B3B" transform="scale(0.409455 0.409856)" d="M33.2109 429.232C36.3496 441.414 41.642 454.184 46.9882 465.538C70.3104 515.132 108.17 556.451 155.535 584.004C175.53 595.817 199.434 605.333 221.848 611.479C223.863 612.031 230.817 613.802 232.56 613.859C233.494 614.408 234.425 614.965 235.351 615.528L234.734 616.623C210.774 611.233 187.585 602.856 165.711 591.688C99.8787 557.488 53.5257 500.19 31.2433 429.785L33.2109 429.232Z"/><path fill="#1F255E" transform="scale(0.409455 0.409856)" d="M10.9265 310.218L11.228 314.944L11.6825 315.238L12.0123 315.073C11.1691 330.111 9.52795 337.707 9.73046 353.766C13.0797 353.876 16.5866 354.048 19.9245 354.006C20.0139 339.083 20.4325 330.779 22.7925 315.871L24.2984 317.748C22.7014 331.37 21.6472 340.398 21.772 353.937C51.0258 354.502 82.7138 352.94 111.473 354.002L111.673 355.216C102.906 356.154 86.647 355.797 77.4979 355.812C58.9291 355.92 40.3598 355.859 21.7921 355.631C22.0314 379.932 26.5632 405.769 33.2109 429.232L31.2433 429.785C24.074 405.654 20.2672 380.649 19.9307 355.477C16.8316 355.489 13.4764 355.646 10.4805 354.967C9.20218 353.963 7.43691 354.06 5.65022 353.883L6.72739 353.638C7.76481 351.655 7.30008 341.987 7.61886 338.744C8.53909 329.384 9.4827 319.485 10.9265 310.218Z"/><path fill="#3E426E" transform="scale(0.409455 0.409856)" d="M232.56 613.859C236.364 614.443 249.183 616.588 252.205 617.7L250.466 619.359C244.729 618.776 240.227 618.577 234.734 616.623L235.351 615.528C234.425 614.965 233.494 614.408 232.56 613.859Z"/><path fill="#FEFEFE" transform="scale(0.409455 0.409856)" d="M294.582 83.278C309.869 84.2789 325.3 84.9519 340.377 87.7489C398.999 99.0884 452.269 129.388 491.984 173.983C496.843 179.533 516.569 203.476 518.511 210.326C502.912 218.537 487.726 227.473 472.503 236.292C463.805 241.33 447.052 252.909 438.939 256.357C405.663 207.034 353.731 179.037 294.505 177.527C294.978 146.112 295.004 114.693 294.582 83.278Z"/><path fill="#FEFEFE" transform="scale(0.409455 0.409856)" d="M105.749 158.521C126.234 179.081 150.333 204.042 170.055 225.301C133.05 261.22 115.981 302.228 114.539 352.858C114.512 353.802 112.18 353.893 111.473 354.002C82.7138 352.94 51.0258 354.502 21.772 353.937C21.6472 340.398 22.7014 331.37 24.2984 317.748C32.0705 266.324 50.2449 222.121 83.688 181.996C88.4157 176.324 100.002 163.169 105.749 158.521Z"/><path fill="#FEFEFE" transform="scale(0.409455 0.409856)" d="M465.749 355.482L467.867 356.007C473.21 355.431 559.436 355.76 559.645 355.846C557.745 428.647 533.45 489.908 481.922 542.246C468.006 527.458 453.849 512.899 439.457 498.574C433.057 492.11 422.713 482.257 416.874 475.544L416.12 473.414C441.756 444.635 456.873 419.085 463.058 380.505C463.009 376.094 464.59 362.521 465.37 358.297C465.667 357.636 465.683 356.285 465.749 355.482Z"/><path fill="#1F255E" transform="scale(0.409455 0.409856)" d="M463.058 380.505C464.788 381.149 464.069 380.653 465.283 382.063C456.717 422.025 444.55 445.388 416.874 475.544L416.12 473.414C441.756 444.635 456.873 419.085 463.058 380.505Z"/><path fill="#7C809E" transform="scale(0.409455 0.409856)" d="M465.749 355.482L467.867 356.007C468.394 361.341 467.228 377.279 465.283 382.063C464.069 380.653 464.788 381.149 463.058 380.505C463.009 376.094 464.59 362.521 465.37 358.297C465.667 357.636 465.683 356.285 465.749 355.482Z"/><path fill="#FEFEFE" transform="scale(0.409455 0.409856)" d="M290.772 83.4163C292.958 83.9457 293.289 83.1084 294.582 83.278C295.004 114.693 294.978 146.112 294.505 177.527C292.482 177.147 286.748 177.667 283.273 177.398C237.14 179.862 205.638 193.829 171.468 224.157C152.768 202.326 127.083 179.102 107.188 156.959C150.818 116.437 207.32 88.5323 267.199 84.6206C271.334 84.9987 285.339 83.8015 290.17 83.4918L290.772 83.4163Z"/><path fill="#9293AC" transform="scale(0.409455 0.409856)" d="M290.772 83.4163C292.958 83.9457 293.289 83.1084 294.582 83.278C295.004 114.693 294.978 146.112 294.505 177.527C292.482 177.147 286.748 177.667 283.273 177.398C285.295 176.844 288.31 176.88 290.484 176.8C290.141 155.683 290.534 134.197 290.373 113.089C290.335 108.144 290.943 87.0965 290.17 83.4918L290.772 83.4163Z"/><path fill="#FEFEFE" transform="scale(0.409455 0.409856)" d="M293.053 529.12C347.762 522.619 373.282 515.244 415.522 477.012C424.132 485.066 432.993 494.853 441.449 503.252C454.701 516.417 467.925 529.855 480.412 543.744C460.363 562.156 444.631 573.946 421.054 587.829C378.457 609.517 340.588 620.611 292.511 619.968C293.415 614.201 292.929 595.414 293.024 588.61C293.304 568.754 293.286 548.973 293.053 529.12Z"/><path fill="#FEFEFE" transform="scale(0.409455 0.409856)" d="M440.118 258.18C462.566 244.37 496.438 223.408 519.811 211.649C531.284 226.146 543.924 259.79 549.378 277.322C551.163 284.527 554.402 295.595 555.393 302.47C556.973 316.395 558.929 326.82 558.934 340.977C559.753 344.395 559.896 347.94 559.355 351.412C559.027 353.909 559.69 354.212 559.645 355.846C559.436 355.76 473.21 355.431 467.867 356.007C467.691 351.801 467.678 349.132 467.959 344.94C467.791 339.164 466.334 332.38 465.5 326.621C462.106 303.206 452.85 278.24 440.118 258.18Z"/><path fill="#9293AC" transform="scale(0.409455 0.409856)" d="M558.934 340.977C559.753 344.395 559.896 347.94 559.355 351.412C559.027 353.909 559.69 354.212 559.645 355.846C559.436 355.76 473.21 355.431 467.867 356.007C467.691 351.801 467.678 349.132 467.959 344.94C468.195 346.786 468.311 349.97 469.412 351.235C475.721 351.978 490.666 351.573 497.492 351.562C518.011 351.367 538.53 351.303 559.05 351.37C558.845 347.856 558.903 344.489 558.934 340.977Z"/><path fill="#FEFEFE" transform="scale(0.409455 0.409856)" d="M0 59.088L6.52935 57.5154C17.1187 68.149 30.4867 82.4397 41.2135 92.2924C59.1783 110.948 77.4469 129.055 95.3541 147.849C57.407 184.504 30.2226 230.855 16.7516 281.872C15.2162 287.707 10.9386 304.429 10.9265 310.218C9.4827 319.485 8.53909 329.384 7.61886 338.744C7.30008 341.987 7.76481 351.655 6.72739 353.638L5.65022 353.883L0 353.732L0 59.088Z"/><path fill="#FEFEFE" transform="scale(0.409455 0.409856)" d="M466.031 349.989C466.705 352.142 465.697 352.599 465.749 355.482C465.683 356.285 465.667 357.636 465.37 358.297C464.59 362.521 463.009 376.094 463.058 380.505C456.873 419.085 441.756 444.635 416.12 473.414C413.549 473.264 403.734 462.084 401.402 459.687L362.711 420.127C380.669 399.798 388.494 383.134 390.395 355.926L390.432 351.661C413.968 351.663 437.583 351.593 461.123 351.504C464.032 351.493 464.447 351.643 466.031 349.989Z"/><path fill="#9293AC" transform="scale(0.409455 0.409856)" d="M466.031 349.989C466.705 352.142 465.697 352.599 465.749 355.482C465.683 356.285 465.667 357.636 465.37 358.297L464.879 356.557C464.583 356.324 464.287 356.091 463.991 355.857C443.043 355.958 410.135 355.954 390.395 355.926L390.432 351.661C413.968 351.663 437.583 351.593 461.123 351.504C464.032 351.493 464.447 351.643 466.031 349.989Z"/><path fill="#FEFEFE" transform="scale(0.409455 0.409856)" d="M373.552 297.893C394.776 285.411 416.404 270.668 438.226 259.462C450.112 276.35 459.842 304.492 463.031 324.864C464.309 333.028 464.646 341.651 466.031 349.989C464.447 351.643 464.032 351.493 461.123 351.504C437.583 351.593 413.968 351.663 390.432 351.661C391.085 333.314 383.441 313.176 373.552 297.893Z"/><path fill="#FEFEFE" transform="scale(0.409455 0.409856)" d="M572.419 355.45L574.146 357.269L574.999 355.126L575.33 355.801C575.084 364.936 572.126 402.695 568.843 410.111C568.517 409.66 568.292 409.642 567.738 409.327L566.281 411.056C558.263 460.327 525.996 516.509 490.375 551.368C488.025 549.22 485.374 546.417 483.09 544.127C535.628 487.238 559.567 432.7 561.573 355.358C564.72 355.353 569.18 355.176 572.15 355.807L572.419 355.45Z"/><defs><linearGradient id="gradient_0" gradientUnits="userSpaceOnUse" x1="567.76343" y1="381.58276" x2="573.59595" y2="381.54105"><stop offset="0" stop-color="#474C87"/><stop offset="1" stop-color="#7F84A6"/></linearGradient></defs><path fill="url(#gradient_0)" transform="scale(0.409455 0.409856)" d="M572.419 355.45L574.146 357.269L574.999 355.126L575.33 355.801C575.084 364.936 572.126 402.695 568.843 410.111C568.517 409.66 568.292 409.642 567.738 409.327L566.281 411.056C569.239 392.06 571.737 375.241 572.15 355.807L572.419 355.45Z"/><path fill="#FEFEFE" transform="scale(0.409455 0.409856)" d="M97.0894 149.372C99.4846 151.814 101.855 154.15 104.003 156.82C61.4135 198.927 29.7451 255.859 22.7925 315.871C20.4325 330.779 20.0139 339.083 19.9245 354.006C16.5866 354.048 13.0797 353.876 9.73046 353.766C9.52795 337.707 11.1691 330.111 12.0123 315.073C20.6781 260.655 39.6493 215.446 75.1182 172.534C79.0984 167.718 92.5492 152.713 97.0894 149.372Z"/><path fill="#FEFEFE" transform="scale(0.409455 0.409856)" d="M290.598 70.6781L294.351 70.6864L294.283 80.6512L290.923 80.6943L290.772 83.4163L290.17 83.4918C285.339 83.8015 271.334 84.9987 267.199 84.6206C264.578 82.9325 262.87 83.4818 259.407 83.4701C247.019 84.0557 230.626 88.117 218.662 91.4919C172.973 104.38 140.341 123.912 105.559 155.516C103.193 153.094 100.621 150.557 98.3529 148.068C112.348 134.322 133.029 119.327 150.007 108.827C191.207 85.4636 242.891 69.7242 290.598 70.6781Z"/><path fill="#5E6187" transform="scale(0.409455 0.409856)" d="M259.407 83.4701C267.731 81.7444 282.628 80.3709 290.923 80.6943L290.772 83.4163L290.17 83.4918C285.339 83.8015 271.334 84.9987 267.199 84.6206C264.578 82.9325 262.87 83.4818 259.407 83.4701Z"/><path fill="#7C809E" transform="scale(0.409455 0.409856)" d="M290.598 70.6781L294.351 70.6864L294.283 80.6512L290.923 80.6943C290.632 78.227 290.662 73.3259 290.598 70.6781Z"/><path fill="#1F255E" transform="scale(0.409455 0.409856)" d="M291.431 610.605C291.257 605.01 290.888 548.326 291.884 546.949C292.997 555.036 292.589 568.19 292.496 576.847C292.38 587.65 292.865 600.104 292.364 610.754L291.431 610.605Z"/><path fill="#FEFEFE" transform="scale(0.409455 0.409856)" d="M130.108 355.657C146.458 355.298 162.932 355.657 179.294 355.421C184.497 355.346 189.861 355.335 195.033 355.847C194.857 387.627 214.273 418.71 241.016 435.05C257.798 445.304 271.403 448.399 290.724 448.896C291 452.863 291.103 456.819 291.008 460.794C290.484 482.7 291.626 504.742 290.704 526.624L280.167 525.877C236.373 521.829 199.627 506.272 168.301 474.974C145.45 452.144 129.685 424.905 122.266 393.567C118.885 379.285 116.892 370.621 116.919 355.838L130.108 355.657Z"/><path fill="#FEFEFE" transform="scale(0.409455 0.409856)" d="M290.507 179.858L294.402 179.778C349.135 179.699 408.07 210.581 436.958 257.588C418.452 269.24 399.048 279.764 380.633 291.63C378.155 293.227 375.356 295.004 372.804 296.465C353.921 270.017 326.49 255.929 294.201 254.029C292.262 253.503 292.012 253.54 290.048 253.991C290.856 252.724 290.502 187.151 290.507 179.858Z"/><path fill="#9293AC" transform="scale(0.409455 0.409856)" d="M290.507 179.858L294.402 179.778C294.456 187.063 293.7 253.22 294.201 254.029C292.262 253.503 292.012 253.54 290.048 253.991C290.856 252.724 290.502 187.151 290.507 179.858Z"/><path fill="#FEFEFE" transform="scale(0.409455 0.409856)" d="M171.453 227.125C174.459 229.407 184.818 240.799 188.229 244.4L224.075 282.194C203.546 302.695 195.583 325.099 194.931 353.503L170.647 353.604L117.004 353.783C116.977 350.859 117.001 347.935 117.077 345.013C118.486 300.369 139.019 257.577 171.453 227.125Z"/><path fill="#FEFEFE" transform="scale(0.409455 0.409856)" d="M360.95 421.65C363.53 422.477 407.783 468.84 413.954 475.695C391.208 497.368 368.482 509.89 338.952 519.493C319.183 525.05 313.681 525.002 292.914 526.126L293.084 449.245C323.026 448.486 338.96 440.583 360.95 421.65Z"/><path fill="#FEFEFE" transform="scale(0.409455 0.409856)" d="M172.96 225.63C205.27 195.56 246.142 178.526 290.507 179.858C290.502 187.151 290.856 252.724 290.048 253.991C263.159 255.218 245.654 264.635 225.459 280.99C219.019 274.762 212.176 266.956 205.907 260.317L172.96 225.63Z"/><path fill="#FEFEFE" transform="scale(0.409455 0.409856)" d="M211.954 350.803C212.296 346.639 212.453 343.388 212.838 339.089C213.933 326.832 225.699 302.577 235.419 295.359C237.225 295.298 237.196 295.875 238.884 297.452C252.112 310.322 267.689 327.765 280.882 339.646C276.986 344.844 276.276 345.224 275.253 351.503C275.312 353.089 275.463 354.712 275.167 356.259C278.314 367.602 282.788 367.015 291.646 371.318C290.831 375.386 291.054 386.454 290.997 391.113C290.83 404.779 291.373 418.699 290.822 432.359C290.299 432.363 289.775 432.363 289.252 432.359C249.129 432.036 211.782 396.68 212.18 356.081C212.228 354.801 212.02 352.189 211.954 350.803Z"/><path fill="#FEFEFE" transform="scale(0.409455 0.409856)" d="M211.954 350.803C212.296 346.639 212.453 343.388 212.838 339.089C213.933 326.832 225.699 302.577 235.419 295.359C237.225 295.298 237.196 295.875 238.884 297.452C252.112 310.322 267.689 327.765 280.882 339.646C276.986 344.844 276.276 345.224 275.253 351.503C275.312 353.089 275.463 354.712 275.167 356.259C273.048 355.784 259.325 355.927 256.247 355.933C242.324 356.005 228.4 355.995 214.477 355.901L212.18 356.081C212.228 354.801 212.02 352.189 211.954 350.803Z"/><path fill="#9293AC" transform="scale(0.409455 0.409856)" d="M212.921 353.2C217.648 352.441 230.144 352.347 235.21 352.256C248.559 352.08 261.907 351.829 275.253 351.503C275.312 353.089 275.463 354.712 275.167 356.259C273.048 355.784 259.325 355.927 256.247 355.933C242.324 356.005 228.4 355.995 214.477 355.901L212.18 356.081C212.228 354.801 212.02 352.189 211.954 350.803L212.921 353.2Z"/><path fill="#7C809E" transform="scale(0.409455 0.409856)" d="M211.954 350.803L212.921 353.2C215.963 353.446 225.98 353.222 228.167 354.732C224.298 355.252 217.352 355.305 214.477 355.901L212.18 356.081C212.228 354.801 212.02 352.189 211.954 350.803Z"/><path fill="#FEFEFE" transform="scale(0.409455 0.409856)" d="M290.712 271.47L293.207 271.298C318.68 273.606 343.827 282.487 358.229 305.281C340.063 316.339 322.257 328.11 304.143 339.311C302.989 339.431 295.2 336.07 292.884 335.297L291.068 335.472C288.107 336.668 285.179 337.603 282.152 338.598L280.882 339.646C267.689 327.765 252.112 310.322 238.884 297.452L240.152 296.101C239.032 295.05 238.733 294.898 238.216 293.415C242.91 281.944 278.471 270.342 290.712 271.47Z"/><path fill="#FEFEFE" transform="scale(0.409455 0.409856)" d="M290.712 271.47L293.207 271.298C293.4 286.268 293.401 301.239 293.21 316.209C293.172 320.142 293.321 331.87 292.884 335.297L291.068 335.472C288.107 336.668 285.179 337.603 282.152 338.598L280.882 339.646C267.689 327.765 252.112 310.322 238.884 297.452L240.152 296.101C239.032 295.05 238.733 294.898 238.216 293.415C242.91 281.944 278.471 270.342 290.712 271.47Z"/><path fill="#3E426E" transform="scale(0.409455 0.409856)" d="M290.712 271.47L293.207 271.298C293.4 286.268 293.401 301.239 293.21 316.209C293.172 320.142 293.321 331.87 292.884 335.297L291.068 335.472C290.716 333.897 290.929 331.449 290.888 329.766C290.414 310.337 291.005 290.892 290.712 271.47Z"/><path fill="#0E0E1E" transform="scale(0.409455 0.409856)" d="M240.152 296.101C253.59 310.353 268.27 324.632 282.152 338.598L280.882 339.646C267.689 327.765 252.112 310.322 238.884 297.452L240.152 296.101Z"/><path fill="#FEFEFE" transform="scale(0.409455 0.409856)" d="M359.211 306.763C366.69 316.584 372.473 333.574 373.045 345.93C373.371 347.484 373.77 356.481 373.312 357.681C370.5 377.602 365.647 393.02 350.741 407.739C341.882 398.151 332.965 388.617 323.992 379.136C320.884 375.841 310.674 364.923 307.486 362.752C307.578 361.255 309.2 357.582 309.844 355.97L309.786 351.697C308.936 346.569 307.729 345.438 304.997 340.946C322.594 329.761 341.43 317.126 359.211 306.763Z"/><path fill="#FEFEFE" transform="scale(0.409455 0.409856)" d="M309.844 355.97C317.637 355.959 368.641 355.147 372.708 356.506L373.312 357.681C370.5 377.602 365.647 393.02 350.741 407.739C341.882 398.151 332.965 388.617 323.992 379.136C320.884 375.841 310.674 364.923 307.486 362.752C307.578 361.255 309.2 357.582 309.844 355.97Z"/><path fill="#9293AC" transform="scale(0.409455 0.409856)" d="M373.045 345.93C373.371 347.484 373.77 356.481 373.312 357.681L372.708 356.506C368.641 355.147 317.637 355.959 309.844 355.97L309.786 351.697L310.571 352.62C313.007 352.989 315.089 352.743 317.531 352.568C335.713 351.262 354.109 352.289 372.274 351.466C373.186 349.978 372.947 347.923 373.045 345.93Z"/><path fill="#FEFEFE" transform="scale(0.409455 0.409856)" d="M292.943 377.066C292.901 373.487 291.902 370.99 295.642 370.5C300.149 369.909 303.079 365.886 306.796 363.575C318.879 377.136 338.889 395.743 349.421 409.028C332.981 424.26 315.76 432.344 292.834 432.352C293.077 414.729 293.453 394.674 292.943 377.066Z"/><path fill="#FEFEFE" transform="scale(0.409455 0.409856)" d="M200.456 355.519C203.459 355.465 206.995 355.674 210.038 355.776C210.568 390.313 235.834 422.089 268.949 430.987C276.517 433.02 282.974 433.824 290.763 434.555C290.858 437.642 291.418 444.218 290.012 446.594L288.387 446.867C245.667 447.022 207.56 414.471 199.09 372.859C198.275 368.856 196.056 359.39 198.183 356.002L200.456 355.519Z"/><path fill="#FEFEFE" transform="scale(0.409455 0.409856)" d="M293.198 255.987C296.489 256.227 299.771 256.557 303.043 256.98C332.87 260.974 353.071 273.682 371.105 297.307L365.832 300.558L360.112 304.128C339.741 279.056 324.157 272.924 293.09 269.194L293.198 255.987Z"/><path fill="#FEFEFE" transform="scale(0.409455 0.409856)" d="M225.262 283.815C227.409 284.664 232.603 290.768 234.516 292.831C223.82 303.92 214.304 320.661 211.504 335.98C210.726 340.238 210.22 350.11 209.231 353.07L207.949 353.471L197.391 353.516C197.338 352.438 197.306 351.359 197.295 350.28C197.004 324.186 207.174 302.343 225.262 283.815Z"/><path fill="#1F255E" transform="scale(0.409455 0.409856)" d="M291.068 335.472L292.884 335.297C295.2 336.07 302.989 339.431 304.143 339.311L304.997 340.946C307.729 345.438 308.936 346.569 309.786 351.697L309.844 355.97C309.2 357.582 307.578 361.255 307.486 362.752L306.796 363.575C303.079 365.886 300.149 369.909 295.642 370.5C291.902 370.99 292.901 373.487 292.943 377.066C292.396 375.233 292.294 373.458 291.646 371.318C282.788 367.015 278.314 367.602 275.167 356.259C275.463 354.712 275.312 353.089 275.253 351.503C276.276 345.224 276.986 344.844 280.882 339.646L282.152 338.598C285.179 337.603 288.107 336.668 291.068 335.472Z"/><path fill="#FEFEFE" transform="scale(0.409455 0.409856)" d="M350.525 410.613C352.609 411.413 358.3 417.862 360.133 419.827C342.36 436.536 327.365 443.171 303.831 446.804L293.139 446.865L293.099 434.235C317.295 433.393 332.638 426.77 350.525 410.613Z"/><path fill="#FEFEFE" transform="scale(0.409455 0.409856)" d="M287.372 256.251C288.569 256.076 288.781 256.177 289.973 256.287C291.928 258.773 291.183 265.76 291.075 269.13C276.236 269.956 262.112 273.89 249.174 281.624C245.582 283.772 238.819 289.66 235.511 291.108L234.242 290.321L226.837 282.409C245.479 265.228 262.655 259.003 287.372 256.251Z"/><path fill="#FEFEFE" transform="scale(0.409455 0.409856)" d="M375.405 356.081C379.683 356.028 384.16 355.901 388.421 355.974C388.595 379.223 376.892 401.803 361.319 418.535L352.054 409.014C365.351 395.478 374.911 375.122 375.405 356.081Z"/><path fill="#FEFEFE" transform="scale(0.409455 0.409856)" d="M371.979 298.805C382.491 314.383 388.204 332.704 388.409 351.498L388.421 355.974C384.16 355.901 379.683 356.028 375.405 356.081L375.39 350.587C375.616 334.952 368.967 318.316 360.884 305.153C364.536 303.034 368.27 300.803 371.979 298.805Z"/><path fill="#9293AC" transform="scale(0.409455 0.409856)" d="M375.39 350.587C377.709 352.246 385.037 351.6 388.409 351.498L388.421 355.974C384.16 355.901 379.683 356.028 375.405 356.081L375.39 350.587Z"/><path fill="#1B1B3B" transform="scale(0.409455 0.409856)" d="M1056.56 429.702L1058.54 430.192C1066.2 432.594 1063.59 435.656 1067.9 437.278C1117.65 434.474 1172.04 450.392 1216.05 473.122C1227.57 479.069 1237.51 486.878 1248 492.566L1248 494.905L1248 514.846L1248 517.207L1248 653.241L1248 657.741L1248 739.324L1248 741.293L1248 832L1183.39 832L1181.35 832L1117.66 832L1115.67 832L1060.54 832L1058.59 832L1007.28 832L1005.43 832L938.497 832L936.241 832L920.39 832L916.796 832L868.704 832L867.094 832L800.397 832L798.626 832L781.921 832C777.907 814.47 774.624 800.176 772.065 782.332C771.027 772.434 770.441 761.55 769.74 751.556C774.932 749.72 775.488 747.949 777.777 743.217C778.74 742.723 782.857 742.701 784.871 742.268C781.783 741.665 777.251 742.519 775.454 739.198C774.184 736.853 772.005 735.805 769.757 734.625C769.357 733.54 771.04 712.762 771.229 710.016L770.736 710.306L769.28 709.621C770.541 702.679 771.259 695.57 772.609 688.459C776.341 668.365 782.042 648.688 789.628 629.712C824.022 543.632 895.414 477.672 983.926 450.196C1001.44 444.663 1019.47 440.967 1037.75 439.166C1040.08 438.932 1046.57 438.573 1048.41 437.659C1050.11 432.644 1051.76 431.22 1056.56 429.702Z"/><path fill="#FEFEFE" transform="scale(0.409455 0.409856)" d="M1144.7 741.58C1150.49 740.874 1165.06 741.141 1171.44 741.152C1185.18 741.177 1200.25 740.699 1213.88 741.215L1248 741.293L1248 832L1183.39 832L1181.35 832L1117.66 832C1113.96 825.776 1108.04 817.201 1103.84 811.388C1121.19 800.261 1137.42 779.132 1140.22 758.429C1140.67 755.092 1141.42 743.936 1142.72 741.922L1144.7 741.58Z"/><path fill="#FEFEFE" transform="scale(0.409455 0.409856)" d="M1248 741.293L1248 832L1183.39 832C1201.44 805.829 1205.29 795.917 1211.77 765.098C1213.08 759.245 1213.54 747.551 1213.88 741.215L1248 741.293Z"/><path fill="#0E0E1E" transform="scale(0.409455 0.409856)" d="M1210.36 761.42C1211.01 762.827 1211.44 763.591 1211.77 765.098C1205.29 795.917 1201.44 805.829 1183.39 832L1181.35 832C1198.21 806.637 1205.86 792.815 1210.36 761.42Z"/><path fill="#5E6187" transform="scale(0.409455 0.409856)" d="M1144.7 741.58C1150.49 740.874 1165.06 741.141 1171.44 741.152C1185.18 741.177 1200.25 740.699 1213.88 741.215C1213.54 747.551 1213.08 759.245 1211.77 765.098C1211.44 763.591 1211.01 762.827 1210.36 761.42C1210 755.572 1210.46 747.563 1210.64 741.544C1189.38 741.155 1165.75 742.645 1144.7 741.58Z"/><path fill="#FEFEFE" transform="scale(0.409455 0.409856)" d="M1179.19 577.325C1208.84 596.012 1232.95 626.364 1248 657.741L1248 739.324L1213.41 739.412C1213.28 726.105 1212.65 719.973 1209.45 707.079L1206.62 706.605L1204.74 698.985L1206.36 698.055C1195.75 666.632 1175.62 639.297 1148.76 619.852C1155.46 609.291 1171.36 587.127 1179.19 577.325Z"/><path fill="#3E426E" transform="scale(0.409455 0.409856)" d="M1206.36 698.055C1207.52 701.146 1208.46 703.928 1209.45 707.079L1206.62 706.605L1204.74 698.985L1206.36 698.055Z"/><path fill="#FEFEFE" transform="scale(0.409455 0.409856)" d="M1147.45 621.739C1174.81 640.316 1194.03 667.912 1204.74 698.985L1206.62 706.605L1209.45 707.079C1212.65 719.973 1213.28 726.105 1213.41 739.412C1209.4 740.153 1204.38 739.843 1200.31 739.488C1183.48 738.575 1159.72 739.751 1141.75 739.475C1141.67 737.637 1141.55 735.8 1141.4 733.966C1139.23 708.766 1126.42 691.693 1107.81 675.989C1119.27 659.957 1135.53 636.946 1147.45 621.739Z"/><defs><linearGradient id="gradient_1" gradientUnits="userSpaceOnUse" x1="1209.2078" y1="722.66693" x2="1211.322" y2="722.43805"><stop offset="0" stop-color="#5E6187"/><stop offset="1" stop-color="#72758E"/></linearGradient></defs><path fill="url(#gradient_1)" transform="scale(0.409455 0.409856)" d="M1206.62 706.605L1209.45 707.079C1212.65 719.973 1213.28 726.105 1213.41 739.412C1209.4 740.153 1204.38 739.843 1200.31 739.488L1210.69 739.248C1210.14 725.863 1209 719.706 1206.62 706.605Z"/><path fill="#FEFEFE" transform="scale(0.409455 0.409856)" d="M905.308 743.506L909.453 743.521C909.688 751.238 909.79 759.504 910.257 767.169C910.443 768.671 910.826 771.107 910.862 772.537C913.429 783.643 917.049 794.48 921.674 804.898C923.186 808.215 930.958 821.095 931.237 822.696C931.631 823.208 931.789 823.536 932.287 823.883C934.948 826.967 936.315 828.599 938.497 832L936.241 832L920.39 832L916.796 832L868.704 832L867.094 832C856.855 813.072 850.222 782.815 848.052 761.563C848.242 759.256 848.188 757.971 849.351 755.92C849.374 751.862 849.137 747.844 848.937 743.793L905.308 743.506Z"/><path fill="#0E0E1E" transform="scale(0.409455 0.409856)" d="M849.351 755.92C852.433 785.771 856.763 804.49 868.704 832L867.094 832C856.855 813.072 850.222 782.815 848.052 761.563C848.242 759.256 848.188 757.971 849.351 755.92Z"/><path fill="#1B1B3B" transform="scale(0.409455 0.409856)" d="M909.554 775.356L910.113 772.901L910.862 772.537C913.429 783.643 917.049 794.48 921.674 804.898C923.186 808.215 930.958 821.095 931.237 822.696C931.631 823.208 931.789 823.536 932.287 823.883C934.948 826.967 936.315 828.599 938.497 832L936.241 832C934.748 829.668 933.047 827.038 930.755 825.516L930.194 825.489L929.59 823.614C928.781 821.125 922.315 810.47 920.686 807.059C915.347 795.877 912.795 787.215 909.554 775.356Z"/><path fill="#7C809E" transform="scale(0.409455 0.409856)" d="M905.308 743.506L909.453 743.521C909.688 751.238 909.79 759.504 910.257 767.169L908.207 769.037C906.469 763.601 905.598 749.224 905.308 743.506Z"/><path fill="#FEFEFE" transform="scale(0.409455 0.409856)" d="M930.755 825.516C933.047 827.038 934.748 829.668 936.241 832L920.39 832C922.906 829.835 927.267 827.309 930.194 825.489L930.755 825.516Z"/><path fill="#1F255E" transform="scale(0.409455 0.409856)" d="M916.796 832C919.079 829.859 926.501 825.54 929.59 823.614L930.194 825.489C927.267 827.309 922.906 829.835 920.39 832L916.796 832Z"/><path fill="#3E426E" transform="scale(0.409455 0.409856)" d="M908.207 769.037L910.257 767.169C910.443 768.671 910.826 771.107 910.862 772.537L910.113 772.901L909.554 775.356L908.207 769.037Z"/><path fill="#FEFEFE" transform="scale(0.409455 0.409856)" d="M787.622 744.019C805.511 743.031 828.744 743.701 846.934 743.748C847.015 750.36 847.328 754.991 848.052 761.563C850.222 782.815 856.855 813.072 867.094 832L800.397 832C798.902 823.636 795.132 810.882 793.232 801.802C788.456 778.976 787.694 766.472 787.622 744.019Z"/><path fill="#FEFEFE" transform="scale(0.409455 0.409856)" d="M1230.83 504.814C1236.46 508.33 1242.62 513.17 1248 517.207L1248 653.241C1229.7 617.727 1211.64 598.575 1180.25 575.571C1196.64 552.27 1215.41 528.625 1230.83 504.814Z"/><path fill="#FEFEFE" transform="scale(0.409455 0.409856)" d="M909.453 743.521C931.737 743.771 953.981 742.962 976.1 743.012C978.845 764.029 980.04 767.741 988.871 786.255C970.974 797.509 949.006 812.626 931.237 822.696C930.958 821.095 923.186 808.215 921.674 804.898C917.049 794.48 913.429 783.643 910.862 772.537C910.826 771.107 910.443 768.671 910.257 767.169C909.79 759.504 909.688 751.238 909.453 743.521Z"/><path fill="#FEFEFE" transform="scale(0.409455 0.409856)" d="M892.494 498.47L901.526 511.12C838.715 558.241 797.542 628.695 787.312 706.559C787.07 708.345 786.718 710.566 786.616 712.334L786.925 716.799L787.815 717.397C788.28 724.464 787.803 734.572 787.773 741.928L784.871 742.268C781.783 741.665 777.251 742.519 775.454 739.198C774.184 736.853 772.005 735.805 769.757 734.625C769.357 733.54 771.04 712.762 771.229 710.016C780.554 628.538 821.948 554.134 886.256 503.261C888.323 501.648 890.402 500.05 892.494 498.47Z"/><path fill="#3E426E" transform="scale(0.409455 0.409856)" d="M786.616 712.334L786.925 716.799L787.815 717.397C788.28 724.464 787.803 734.572 787.773 741.928L784.871 742.268C784.675 736.509 785.684 717.984 786.616 712.334Z"/><path fill="#FEFEFE" transform="scale(0.409455 0.409856)" d="M1056.56 429.702L1058.54 430.192C1066.2 432.594 1063.59 435.656 1067.9 437.278C1117.65 434.474 1172.04 450.392 1216.05 473.122C1227.57 479.069 1237.51 486.878 1248 492.566L1248 494.905L1248 514.846L1232 502.906C1234.9 498.618 1238.48 493.772 1240.5 489.077C1236.27 494.008 1234.18 496.837 1230.44 502.264C1194.34 476.383 1143.6 459.685 1099.49 455.198C1091.55 454.391 1084.8 454.17 1076.89 454.185C1072.86 454.193 1062.42 454.586 1058.98 453.876C1058.1 451.978 1058.41 449.61 1058.47 447.426L1056.62 447.572C1051.67 446.496 1050.54 444.95 1048.68 440.554L1048.41 437.659C1050.11 432.644 1051.76 431.22 1056.56 429.702Z"/><path fill="#0E0E1E" transform="scale(0.409455 0.409856)" d="M1067.9 437.278C1117.65 434.474 1172.04 450.392 1216.05 473.122C1227.57 479.069 1237.51 486.878 1248 492.566L1248 494.905C1239.12 490.124 1229.02 482.252 1218.46 476.515C1176.73 453.506 1130.2 440.572 1082.58 438.745C1080.12 438.216 1071.2 438 1068.23 437.876L1067.9 437.278Z"/><path fill="#1F255E" transform="scale(0.409455 0.409856)" d="M1056.56 429.702L1058.54 430.192C1066.2 432.594 1063.59 435.656 1067.9 437.278L1068.23 437.876C1071.2 438 1080.12 438.216 1082.58 438.745L1066.8 438.805C1065.33 444.034 1063.94 446.144 1058.47 447.426L1056.62 447.572C1051.67 446.496 1050.54 444.95 1048.68 440.554L1048.41 437.659C1050.11 432.644 1051.76 431.22 1056.56 429.702Z"/><path fill="#FEFEFE" transform="scale(0.409455 0.409856)" d="M794.498 677.09C814.187 681.969 833.283 687.384 852.784 692.394C850.785 707.085 846.925 727.097 846.999 741.85L787.773 741.928C787.803 734.572 788.28 724.464 787.815 717.397C789.029 704.234 791.605 689.928 794.498 677.09Z"/><path fill="#FEFEFE" transform="scale(0.409455 0.409856)" d="M893.646 497.687C928.804 471.664 969.207 453.612 1012.05 444.787C1022.5 442.56 1038 439.954 1048.68 440.554C1050.54 444.95 1051.67 446.496 1056.62 447.572C1056.64 448.231 1056.93 453.751 1056.17 453.84C1041.56 455.547 1026.37 457.238 1011.99 460.381C972.52 469.023 935.349 485.98 902.952 510.122C900.011 505.924 896.757 501.772 893.646 497.687Z"/><path fill="#FEFEFE" transform="scale(0.409455 0.409856)" d="M932.287 823.883C951.501 813.031 971.085 798.628 990.065 787.592C998.836 799.366 1004.52 804.596 1016.92 812.642C1013.8 817.604 1007.58 827.007 1005.43 832L938.497 832C936.315 828.599 934.948 826.967 932.287 823.883Z"/><path fill="#FEFEFE" transform="scale(0.409455 0.409856)" d="M777.777 743.217C780.62 743.672 782.554 744.003 785.443 744.089C785.709 765.771 786.847 781.574 791.477 803.246C793.48 812.62 796.816 823.113 798.626 832L781.921 832C777.907 814.47 774.624 800.176 772.065 782.332C771.027 772.434 770.441 761.55 769.74 751.556C774.932 749.72 775.488 747.949 777.777 743.217Z"/><path fill="#FEFEFE" transform="scale(0.409455 0.409856)" d="M1060.66 824.277C1077.4 823.487 1087.65 820.097 1102.53 812.557C1106.82 817.854 1111.85 826.108 1115.67 832L1060.54 832L1060.66 824.277Z"/><path fill="#FEFEFE" transform="scale(0.409455 0.409856)" d="M1018.35 813.717C1031 819.775 1044.69 823.335 1058.68 824.202L1060.66 824.277L1060.54 832L1058.59 832L1007.28 832C1010.01 826.42 1014.95 818.903 1018.35 813.717Z"/><path fill="#1F255E" transform="scale(0.409455 0.409856)" d="M1058.68 824.202L1060.66 824.277L1060.54 832L1058.59 832L1058.68 824.202Z"/><path fill="#FEFEFE" transform="scale(0.409455 0.409856)" d="M1058.46 456.044C1110.08 455.3 1152.32 462.792 1199.35 485.93C1208.15 490.261 1221.82 497.969 1229.55 503.967C1213.61 527.404 1195.46 552.077 1178.57 574.841C1136.68 548.269 1107.06 541.546 1058.42 541.458L1058.3 532.037C1058.11 529.008 1058.25 525.69 1058.3 522.633C1058.73 500.738 1057.78 477.639 1058.46 456.044Z"/><path fill="#9293AC" transform="scale(0.409455 0.409856)" d="M1058.3 522.633C1058.68 523.292 1059.04 524.279 1059.58 524.372C1065.04 525.327 1075.77 524.036 1080.92 525.628L1079.09 526.742L1078.98 527.488C1080.52 527.909 1081.58 528.146 1083.16 528.415C1077.83 528.496 1062.95 527.59 1059.3 529.229C1058.79 530.408 1058.61 530.762 1058.3 532.037C1058.11 529.008 1058.25 525.69 1058.3 522.633Z"/><path fill="#1F255E" transform="scale(0.409455 0.409856)" d="M1085.23 526.464C1090.96 526.835 1095.48 526.94 1101.04 528.474L1101.29 528.945C1095.89 528.965 1091.88 528.889 1086.51 528.447L1085.17 527.664L1085.23 526.464Z"/><path fill="#3E426E" transform="scale(0.409455 0.409856)" d="M1080.92 525.628C1081.83 525.782 1084.52 526.163 1085.23 526.464L1085.17 527.664L1086.51 528.447L1083.16 528.415C1081.58 528.146 1080.52 527.909 1078.98 527.488L1079.09 526.742L1080.92 525.628Z"/><path fill="#FEFEFE" transform="scale(0.409455 0.409856)" d="M902.357 512.772C904.186 514.354 912.618 526.191 914.693 529.057C923.407 541.091 932.718 553.096 940.863 565.489C897.164 597.094 867.485 638.234 853.809 690.686C848.648 689.268 842.695 687.964 837.438 686.68C824.642 683.23 807.462 677.862 794.836 675.566C810.832 610.522 848.818 553.009 902.357 512.772Z"/><path fill="#FEFEFE" transform="scale(0.409455 0.409856)" d="M1051.03 456.774C1052.89 456.325 1054.87 456.029 1056.44 457.194C1057.41 477.679 1056.27 503.51 1056.72 525.201C1007.52 530.727 985.097 537.31 942.277 564.2C938.035 557.888 933.427 551.715 928.933 545.572L903.985 511.546C933.943 487.417 978.713 468.842 1016.15 461.371C1027.21 459.163 1039.74 457.832 1051.03 456.774Z"/><path fill="#FEFEFE" transform="scale(0.409455 0.409856)" d="M942.086 566.832C944.164 568.855 952.467 580.745 954.579 583.672C962.112 594.112 970.706 604.717 977.768 615.371C942.172 639.629 923.117 665.142 911.192 706.186C906.404 704.523 901.231 703.252 896.319 701.94C884.369 699.204 867.293 694.787 855.756 690.902C866.838 642.94 901.355 594.236 942.086 566.832Z"/><path fill="#FEFEFE" transform="scale(0.409455 0.409856)" d="M1046.76 528.715C1048.86 528.349 1053.85 528.215 1056.18 528.087C1056.53 531.206 1057.17 538.071 1056.49 540.899C1053.67 542.657 1046.54 540.371 1044.02 543.399L1044.61 544.537C1047.33 545.365 1053.53 543.914 1056.69 543.376C1056.68 549.396 1056.41 556.053 1056.49 562.124C1056.58 568.275 1057.38 584.468 1056.31 589.724C1054.56 591.207 1037.41 593.571 1034.2 594.073C1013.89 597.238 997.303 604.026 979.565 614.401L974.932 608.087C964.344 594.079 953.887 579.972 943.564 565.768C973.431 545.524 1010.41 530.264 1046.76 528.715Z"/><path fill="#FEFEFE" transform="scale(0.409455 0.409856)" d="M978.403 617.341C980.935 618.033 1014.94 665.911 1018.54 671.242C1003.5 681.477 992.4 692.104 984.642 708.984C982.366 713.936 981.225 718.549 979.15 723.524C973.641 722.548 965.373 720.047 959.717 718.524L913.473 706.378C913.685 705.419 913.904 704.462 914.129 703.506C922.231 669.126 948.662 635.735 978.403 617.341Z"/><path fill="#FEFEFE" transform="scale(0.409455 0.409856)" d="M1058.48 543.636C1061.2 543.631 1064.05 543.713 1066.75 543.629C1107.58 542.353 1143.15 554.36 1177.53 576.339L1147.17 618.803C1126.29 605.441 1106.56 596.184 1081.5 593.353L1079.89 594.716L1076.3 594.824C1070.47 594.948 1064.63 594.997 1058.8 594.972L1058.8 590.17C1058.8 575.026 1059.09 558.679 1058.48 543.636Z"/><path fill="#7C809E" transform="scale(0.409455 0.409856)" d="M1058.8 590.17C1063.6 590.81 1068.71 591.393 1073.45 592.288C1074.96 592.444 1080.43 592.887 1081.5 593.353L1079.89 594.716L1076.3 594.824C1070.47 594.948 1064.63 594.997 1058.8 594.972L1058.8 590.17Z"/><path fill="#3E426E" transform="scale(0.409455 0.409856)" d="M1073.45 592.288C1074.96 592.444 1080.43 592.887 1081.5 593.353L1079.89 594.716L1076.3 594.824C1073.7 594.423 1071.86 594.551 1069 593.917C1070.18 592.879 1071.88 592.668 1073.45 592.288Z"/><path fill="#FEFEFE" transform="scale(0.409455 0.409856)" d="M1076.3 594.824L1079.89 594.716C1107.81 599.506 1122.52 604.965 1146.05 620.366C1132.63 638.769 1119.96 656.788 1106.2 675.067C1090.14 665.542 1078.45 660.842 1059.18 661.448C1058.51 639.606 1058.95 616.921 1058.8 594.972C1064.63 594.997 1070.47 594.948 1076.3 594.824Z"/><path fill="#FEFEFE" transform="scale(0.409455 0.409856)" d="M1038.84 595.081C1044 594.353 1050.85 594.574 1056.2 594.597C1057.67 612.09 1056.77 642.828 1056.81 661.418C1042.55 660.922 1033.02 664.797 1020.3 670.237L1010.88 657.455C1002.52 645.602 989.169 626.675 980.417 616.041C1001.85 603.4 1014.52 599.183 1038.84 595.081Z"/><path fill="#FEFEFE" transform="scale(0.409455 0.409856)" d="M854.528 692.863C870.815 696.743 894.511 702.709 910.234 707.786C909.844 710.378 909.368 713.038 908.937 715.632L911.231 715.975C909.678 722.841 908.977 734.893 909.498 741.877L905.189 741.816C886.972 742.251 867.34 741.98 849.104 741.806C848.94 727.121 852.435 707.36 854.528 692.863Z"/><defs><linearGradient id="gradient_2" gradientUnits="userSpaceOnUse" x1="914.7464" y1="724.85608" x2="901.75348" y2="732.28088"><stop offset="0" stop-color="#56658B"/><stop offset="1" stop-color="#938EA2"/></linearGradient></defs><path fill="url(#gradient_2)" transform="scale(0.409455 0.409856)" d="M905.189 741.816C905.786 733.007 907.039 724.255 908.937 715.632L911.231 715.975C909.678 722.841 908.977 734.893 909.498 741.877L905.189 741.816Z"/><path fill="#FEFEFE" transform="scale(0.409455 0.409856)" d="M1081.84 711.43C1090.4 718.13 1097.79 728.163 1097.82 739.508C1098.06 741.904 1098.41 743.621 1097.86 745.967C1094.98 758.985 1091.06 767.602 1079.31 775.059C1076.02 769.795 1069.82 759.444 1065.95 755.174L1065.01 755.715C1062.83 755.475 1062.53 755.613 1060.33 756.07L1059.09 755.978C1057.97 756.163 1054.01 755.4 1052.37 755.275L1051.57 754.179C1050.35 752.221 1049.73 752.018 1047.68 750.887L1047.13 749.322C1046.38 746.648 1045.61 744.399 1044.68 741.779L1044.33 741.652C1044.56 740.648 1044.91 740.257 1045.43 739.351C1049.01 732.121 1050.58 733.637 1055.06 728.645L1054.57 726.983L1055.84 726.41C1056.72 727.402 1057.12 728.114 1058.4 728.33L1060.87 728.972C1063.05 729.412 1064.57 729.767 1066.82 729.86L1067.5 730.544C1073.01 724.494 1076.95 717.618 1081.84 711.43Z"/><path fill="#1F255E" transform="scale(0.409455 0.409856)" d="M1055.84 726.41C1056.72 727.402 1057.12 728.114 1058.4 728.33L1060.87 728.972C1063.05 729.412 1064.57 729.767 1066.82 729.86L1067.5 730.544C1069.26 734.87 1071.09 734.734 1072.08 739.757C1072.08 741.175 1071.99 742.935 1072.32 744.266C1070.24 751.568 1066.28 752.513 1065.95 755.174L1065.01 755.715C1062.83 755.475 1062.53 755.613 1060.33 756.07L1059.09 755.978C1057.97 756.163 1054.01 755.4 1052.37 755.275L1051.57 754.179C1050.35 752.221 1049.73 752.018 1047.68 750.887L1047.13 749.322C1046.38 746.648 1045.61 744.399 1044.68 741.779L1044.33 741.652C1044.56 740.648 1044.91 740.257 1045.43 739.351C1049.01 732.121 1050.58 733.637 1055.06 728.645L1054.57 726.983L1055.84 726.41Z"/><path fill="#FEFEFE" transform="scale(0.409455 0.409856)" d="M1081.84 711.43C1090.4 718.13 1097.79 728.163 1097.82 739.508C1089.24 739.757 1080.66 739.84 1072.08 739.757C1071.09 734.734 1069.26 734.87 1067.5 730.544C1073.01 724.494 1076.95 717.618 1081.84 711.43Z"/><path fill="#7C809E" transform="scale(0.409455 0.409856)" d="M1072.08 739.757C1080.66 739.84 1089.24 739.757 1097.82 739.508C1098.06 741.904 1098.41 743.621 1097.86 745.967C1097.87 744.143 1098 743.771 1097.24 742.179C1093.23 742.066 1074.65 742.609 1072.32 744.266C1071.99 742.935 1072.08 741.175 1072.08 739.757Z"/><path fill="#FEFEFE" transform="scale(0.409455 0.409856)" d="M1115.18 741.805L1139.8 741.648C1139.88 769.461 1129.35 788.893 1108.17 806.263L1102.8 810.06C1098.3 803.207 1093.5 796.302 1088.89 789.501C1107.11 778.334 1114.18 762.344 1115.18 741.805Z"/><path fill="#FEFEFE" transform="scale(0.409455 0.409856)" d="M912.516 708.089L979.078 725.33C978.206 730.01 977.141 736.777 975.984 741.237L909.498 741.877C908.977 734.893 909.678 722.841 911.231 715.975C911.593 713.132 911.951 710.898 912.516 708.089Z"/><path fill="#FEFEFE" transform="scale(0.409455 0.409856)" d="M1106.61 677.706C1111.39 681.212 1115.8 685.19 1119.78 689.582C1131.56 702.532 1140.6 721.987 1139.79 739.619C1135.33 739.81 1130.37 739.777 1125.86 739.838L1114.82 739.622C1114.78 738.387 1114.7 737.152 1114.58 735.921C1113.07 719.321 1104.19 707.594 1091.96 697.303C1096.81 690.744 1101.69 684.212 1106.61 677.706Z"/><path fill="#FEFEFE" transform="scale(0.409455 0.409856)" d="M1018.8 673.385C1021.83 674.622 1031.52 690.33 1033.71 693.842C1017.72 702.777 1010.39 713.86 1004.76 730.648L998.952 728.815C994.434 727.933 986.066 725.367 981.203 724.105C987.419 701.805 998.993 685.844 1018.8 673.385Z"/><path fill="#FEFEFE" transform="scale(0.409455 0.409856)" d="M980.845 726.107C987.536 727.078 997.573 730.404 1004.44 732.367C1004.2 734.057 1003.78 737.766 1003.43 739.273C1003.45 741.797 1003.54 744.32 1003.72 746.839C1005.04 757.635 1006.89 762.337 1011.49 771.86C1005.55 776.147 996.824 781.228 990.461 785.171C982.69 769.975 979.338 760.705 978.545 743.505C978.529 741.251 978.429 739.871 978.889 737.636C979.447 733.436 979.887 730.278 980.845 726.107Z"/><path fill="#FEFEFE" transform="scale(0.409455 0.409856)" d="M980.845 726.107C987.536 727.078 997.573 730.404 1004.44 732.367C1004.2 734.057 1003.78 737.766 1003.43 739.273C998.486 739.078 983.154 740.069 979.568 739.046L978.889 737.636C979.447 733.436 979.887 730.278 980.845 726.107Z"/><path fill="#9293AC" transform="scale(0.409455 0.409856)" d="M978.545 743.505C978.529 741.251 978.429 739.871 978.889 737.636L979.568 739.046C983.154 740.069 998.486 739.078 1003.43 739.273C1003.45 741.797 1003.54 744.32 1003.72 746.839L1002.75 743.919C1002.02 743.388 980.879 743.569 978.545 743.505Z"/><path fill="#FEFEFE" transform="scale(0.409455 0.409856)" d="M1059.13 663.131C1078.14 662.938 1089.1 666.58 1104.9 676.513L1096.98 687.678C1094.9 690.642 1092.64 693.6 1090.48 696.513C1079.62 689.205 1071.58 688.608 1059.05 686.885L1059.13 663.131Z"/><path fill="#FEFEFE" transform="scale(0.409455 0.409856)" d="M1087.21 790.586C1089.56 792.251 1099.23 807.712 1101.44 811.161C1091.81 816.242 1084.33 818.585 1073.86 821.113C1068.3 822.088 1066.31 822.324 1060.74 822.556C1060.59 814.191 1060.58 805.824 1060.7 797.458C1072.05 797.366 1077.14 795.487 1087.21 790.586Z"/><path fill="#FEFEFE" transform="scale(0.409455 0.409856)" d="M1031.83 790.951C1041.21 796.186 1048.22 797.209 1058.59 797.699C1058.75 805.958 1058.76 814.218 1058.6 822.477C1055.42 822.375 1052.34 821.84 1049.19 821.362C1038.36 820.131 1029.21 816.654 1019.54 811.88C1022.84 805.497 1028.07 797.273 1031.83 790.951Z"/><path fill="#FEFEFE" transform="scale(0.409455 0.409856)" d="M1047.83 663.352C1050.23 663.094 1054.42 663.097 1056.96 663.017C1057.45 670.358 1057.3 679.67 1057.38 687.158C1047.53 688.48 1044.89 689.366 1035.4 692.805L1034.67 692.088C1030.21 685.152 1025.79 679.147 1021.38 671.894C1030.23 667.267 1037.93 664.834 1047.83 663.352Z"/><path fill="#FEFEFE" transform="scale(0.409455 0.409856)" d="M1012.19 773.519C1018.84 781.459 1021.79 784.645 1030.33 790.432C1026.45 797.285 1022.12 804.129 1017.99 810.849L1012.68 807.594C1002.83 800.358 998.796 796.27 991.385 786.555C998.02 782.64 1005.5 777.671 1012.19 773.519Z"/><path fill="#FEFEFE" transform="scale(0.409455 0.409856)" d="M1100.29 741.469C1103.46 741.747 1109.65 741.66 1113 741.705C1113.03 761.656 1106.89 773.863 1090.94 785.991L1088.78 787.392C1086.04 786.874 1082.55 779.724 1080.33 776.622C1094.46 766.206 1097.64 758.188 1100.29 741.469Z"/><path fill="#FEFEFE" transform="scale(0.409455 0.409856)" d="M1043 708.387C1046.77 714.64 1050.63 720.839 1054.57 726.983L1055.06 728.645C1050.58 733.637 1049.01 732.121 1045.43 739.351C1040.54 739.434 1035.71 738.471 1031 737.227C1028.41 736.042 1025.16 735.129 1022.4 734.269C1022.57 733.563 1022.76 732.862 1022.97 732.166C1026.36 720.733 1032.78 713.991 1043 708.387Z"/><path fill="#FEFEFE" transform="scale(0.409455 0.409856)" d="M1090.86 699.036C1104.18 707.155 1112.65 724.222 1112.81 739.633L1105.08 739.815C1104.55 739.834 1100.88 739.883 1100.77 739.551C1096.13 725.454 1094.74 719.729 1082.69 709.611C1085.43 706.1 1088.15 702.575 1090.86 699.036Z"/><path fill="#FEFEFE" transform="scale(0.409455 0.409856)" d="M1034.62 695.401C1036.27 697.02 1040.37 704.455 1041.8 706.901C1028.32 714.774 1025.92 720.311 1020.26 733.675C1018.2 734.235 1017.97 733.747 1015.68 733.019L1007.11 731.258C1007.39 730.054 1007.69 728.855 1008.01 727.662C1011.92 713.251 1021.93 702.671 1034.62 695.401Z"/><path fill="#FEFEFE" transform="scale(0.409455 0.409856)" d="M1056.94 704.565L1060.66 704.577C1069.64 705.286 1072.1 706.003 1080.16 710.479C1077.15 714.732 1068.92 725.794 1066.82 729.86C1064.57 729.767 1063.05 729.412 1060.87 728.972L1058.4 728.33C1057.12 728.114 1056.72 727.402 1055.84 726.41C1052.11 720.052 1048.55 713.899 1044.43 707.775C1049.42 705.283 1051.36 704.779 1056.94 704.565Z"/><path fill="#FEFEFE" transform="scale(0.409455 0.409856)" d="M1044.43 707.775C1049.42 705.283 1051.36 704.779 1056.94 704.565C1057.16 710.602 1058.52 723.554 1058.4 728.33C1057.12 728.114 1056.72 727.402 1055.84 726.41C1052.11 720.052 1048.55 713.899 1044.43 707.775Z"/><defs><linearGradient id="gradient_3" gradientUnits="userSpaceOnUse" x1="1062.5443" y1="717.07312" x2="1055.0984" y2="714.5108"><stop offset="0" stop-color="#656985"/><stop offset="1" stop-color="#848CA9"/></linearGradient></defs><path fill="url(#gradient_3)" transform="scale(0.409455 0.409856)" d="M1056.94 704.565L1060.66 704.577C1060.67 712.281 1060.46 721.377 1060.87 728.972L1058.4 728.33C1058.52 723.554 1057.16 710.602 1056.94 704.565Z"/><path fill="#FEFEFE" transform="scale(0.409455 0.409856)" d="M1021.04 739.869C1021.03 739.099 1021.22 738.688 1021.42 737.913C1024.28 735.878 1027.6 736.524 1030.36 738.488L1031 737.227C1035.71 738.471 1040.54 739.434 1045.43 739.351C1044.91 740.257 1044.56 740.648 1044.33 741.652L1044.68 741.779C1045.61 744.399 1046.38 746.648 1047.13 749.322C1041.07 753.573 1032.49 758.769 1026.16 762.668C1022.22 755.049 1021.69 750.201 1021.18 741.949L1021.04 739.869Z"/><path fill="#3E426E" transform="scale(0.409455 0.409856)" d="M1021.04 739.869C1021.03 739.099 1021.22 738.688 1021.42 737.913C1024.28 735.878 1027.6 736.524 1030.36 738.488L1031 737.227C1035.71 738.471 1040.54 739.434 1045.43 739.351C1044.91 740.257 1044.56 740.648 1044.33 741.652L1044.68 741.779C1041.75 742.711 1025.02 742.125 1021.18 741.949L1021.04 739.869Z"/><path fill="#FEFEFE" transform="scale(0.409455 0.409856)" d="M1021.04 739.869C1021.03 739.099 1021.22 738.688 1021.42 737.913C1024.28 735.878 1027.6 736.524 1030.36 738.488C1028.31 739.989 1023.76 739.832 1021.04 739.869Z"/><path fill="#FEFEFE" transform="scale(0.409455 0.409856)" d="M1056.18 689.034C1057.51 688.789 1060.93 688.356 1062.01 689.028C1072.63 690.463 1080.23 691.932 1089.61 697.847C1086.92 701.68 1084.12 705.44 1081.23 709.125C1074.17 705.101 1068.92 702.601 1060.45 702.736L1057.1 702.711C1057.24 699.163 1057.88 691.66 1056.18 689.034Z"/><path fill="#5E6187" transform="scale(0.409455 0.409856)" d="M1056.18 689.034C1057.51 688.789 1060.93 688.356 1062.01 689.028L1060.38 689.315C1058.73 692.131 1060.03 699.282 1060.45 702.736L1057.1 702.711C1057.24 699.163 1057.88 691.66 1056.18 689.034Z"/><path fill="#FEFEFE" transform="scale(0.409455 0.409856)" d="M1005.16 741.715C1009.79 741.816 1014.71 741.732 1019.36 741.721C1019.47 750.749 1021.05 755.688 1024.34 763.828L1019.74 766.643L1013 770.881C1007.65 759.435 1005.86 754.233 1005.16 741.715Z"/><path fill="#FEFEFE" transform="scale(0.409455 0.409856)" d="M1078.04 777.781L1079.23 778.058C1081.87 781.122 1084.33 785.558 1086.47 789.089C1079.85 792.561 1076.24 793.623 1069.21 795.378C1066.55 795.613 1063.38 795.667 1060.67 795.779L1060.62 782.885C1067.7 781.75 1071.63 780.496 1078.04 777.781Z"/><path fill="#FEFEFE" transform="scale(0.409455 0.409856)" d="M1040.15 777.551L1040.55 777.765C1047.18 781.104 1051.42 781.905 1058.61 783.242L1058.53 795.949L1052.48 795.732C1045.74 795.267 1038.8 792.752 1032.88 789.582C1035.06 785.428 1037.59 781.482 1040.15 777.551Z"/><path fill="#FEFEFE" transform="scale(0.409455 0.409856)" d="M1052.37 755.275C1054.01 755.4 1057.97 756.163 1059.09 755.978C1058.29 760.051 1058.55 775.891 1058.57 781.113C1051.6 780.672 1046.78 779.105 1040.76 775.748C1044.11 770.265 1049.88 761.003 1052.37 755.275Z"/><path fill="#FEFEFE" transform="scale(0.409455 0.409856)" d="M1025.28 765.51C1026.21 765.68 1036.03 775.622 1037.89 777.265C1036.35 780.116 1033.26 786.437 1030.96 788.388L1029.51 788.044C1022.68 783.013 1018.79 779.262 1014.04 772.337C1017.23 770.07 1021.82 767.541 1025.28 765.51Z"/><path fill="#FEFEFE" transform="scale(0.409455 0.409856)" d="M1060.33 756.07C1062.53 755.613 1062.83 755.475 1065.01 755.715L1077.71 775.927C1071.32 778.802 1067.87 779.761 1060.81 781.09C1060.42 772.756 1060.26 764.413 1060.33 756.07Z"/><path fill="#FEFEFE" transform="scale(0.409455 0.409856)" d="M1047.68 750.887C1049.73 752.018 1050.35 752.221 1051.57 754.179C1047.42 761.192 1043.17 768.607 1038.57 775.301C1033.97 771.798 1030.92 768.655 1027.24 764.325C1034 759.777 1040.97 755.571 1047.68 750.887Z"/><path fill="#FEFEFE" transform="scale(0.409455 0.409856)" d="M1056.18 689.034C1057.88 691.66 1057.24 699.163 1057.1 702.711C1051.12 703.156 1048.95 703.836 1043.39 705.875L1036 694.42C1044.23 691.049 1047.49 690.339 1056.18 689.034Z"/><path fill="#FEFEFE" transform="scale(0.409455 0.409856)" d="M1006.45 733.219C1012.78 734.477 1018.47 732.539 1019.9 739.983C1015.27 739.949 1009.79 741.408 1006.45 738.997C1005.49 736.454 1006 736.29 1006.45 733.219Z"/><path fill="#1B1B3B" transform="scale(0.409455 0.409856)" d="M1039.07 0L1043.43 0L1073.15 0L1081.86 0L1128.05 0L1131.68 0L1176.5 0L1183.88 0L1214.84 0L1219.07 0L1248 0L1248 19.9617L1248 22.7649L1248 39.7819L1248 44.8574L1248 163.138L1248 165.229L1248 280.348L1248 283.178L1248 284.413L1248 288.116C1241.96 293.807 1235.52 299.06 1228.73 303.835C1208.25 317.657 1197.97 322.408 1174.49 330.052L1173.18 328.585C1160.46 331.859 1150.58 332.767 1137.53 334.328C1136.03 334.938 1122.25 334.797 1120.21 334.297L1128.86 334.318L1129.36 237.657C1112.76 236.022 1102.27 234.689 1087.64 225.367C1084.09 223.099 1080.92 219.997 1077.39 217.76L1077.02 217.531L1075.5 216.448C1074.71 214.533 1068.62 207.708 1067.01 205.276C1058 191.683 1056.03 180.839 1054.27 165.351C1027.9 166.232 1001.31 165.531 974.919 165.839C971.432 165.88 967.867 165.892 964.391 165.623C962.906 165.282 960.552 165.268 959.474 164.476L961.908 163.832C960.993 163.71 960.636 163.525 959.739 163.222C958.61 160.517 960.586 147.555 960.968 143.473L960.063 146.13L959.65 146.144L959.21 140.767C957.723 147.938 957.348 156.524 956.895 163.888L946.567 163.885C946.282 159.707 946.435 153.147 946.353 148.709C945.021 149.125 945.676 149.147 944.333 148.538L943.636 145.528L945.288 135.441C953.439 95.6205 967.709 63.8286 995.998 34.197C993.452 31.6188 982.643 22.1275 982.844 19.4276L983.851 19.379C986.595 21.3057 994.521 29.919 997.273 32.794C1013.1 17.1427 1020.58 11.6937 1039.07 0Z"/><path fill="#FEFEFE" transform="scale(0.409455 0.409856)" d="M1181.68 216.01C1190.95 224.714 1201 235.279 1210.01 244.411C1222.77 257.241 1235.43 270.164 1248 283.178L1248 284.413L1248 288.116C1241.96 293.807 1235.52 299.06 1228.73 303.835C1208.25 317.657 1197.97 322.408 1174.49 330.052L1173.18 328.585C1160.46 331.859 1150.58 332.767 1137.53 334.328C1135.42 334.386 1134.64 334.439 1132.58 334.039C1132.25 333.668 1131.92 333.296 1131.58 332.925C1130.99 311.527 1131.5 254.645 1131.54 237.233C1151.36 236.678 1167.45 229.709 1181.68 216.01Z"/><path fill="#0E0E1E" transform="scale(0.409455 0.409856)" d="M1229.13 301.309L1228.73 303.835C1208.25 317.657 1197.97 322.408 1174.49 330.052L1173.18 328.585C1193.56 323.471 1212.09 313.332 1229.13 301.309Z"/><path fill="#3E426E" transform="scale(0.409455 0.409856)" d="M1248 284.413L1248 288.116C1241.96 293.807 1235.52 299.06 1228.73 303.835L1229.13 301.309C1230.3 299.951 1245.68 286.513 1248 284.413Z"/><path fill="#FEFEFE" transform="scale(0.409455 0.409856)" d="M1073.15 0L1081.86 0L1128.05 0C1128.29 19.8828 1129.28 39.6246 1128.8 59.5612C1128.7 63.6851 1128.21 78.3644 1129.08 81.2748L1129.25 90.269C1107.85 89.6177 1092.3 97.769 1076.74 111.607L1008.47 43.5889C1021.74 30.5681 1032.21 23.1814 1048.02 13.9525C1047.91 13.4771 1047.2 12.2737 1046.93 11.7711C1055.61 5.7442 1065.84 4.39462 1073.15 0Z"/><path fill="#5E6187" transform="scale(0.409455 0.409856)" d="M1073.15 0L1081.86 0C1077.32 3.45553 1061.82 6.17794 1055.96 10.2108C1055.35 10.6309 1048.66 13.7348 1048.02 13.9525C1047.91 13.4771 1047.2 12.2737 1046.93 11.7711C1055.61 5.7442 1065.84 4.39462 1073.15 0Z"/><path fill="#FEFEFE" transform="scale(0.409455 0.409856)" d="M1128.05 0L1131.68 0L1176.5 0C1182.99 2.50215 1189.96 4.7253 1196.34 7.34071C1211.84 13.6895 1236.81 29.3197 1247.54 42.2446C1225.52 64.8354 1202.27 87.9834 1180.87 110.965C1168.14 99.2085 1149.47 89.4627 1131.71 90.3401L1129.25 90.269L1129.08 81.2748C1128.21 78.3644 1128.7 63.6851 1128.8 59.5612C1129.28 39.6246 1128.29 19.8828 1128.05 0Z"/><path fill="#7C809E" transform="scale(0.409455 0.409856)" d="M1128.05 0L1131.68 0L1131.89 53.5222C1131.88 60.6217 1132.18 72.9828 1131.62 79.4648C1130 81.7934 1131.68 83.0298 1130.06 84.8486L1129.65 81.1861L1129.08 81.2748C1128.21 78.3644 1128.7 63.6851 1128.8 59.5612C1129.28 39.6246 1128.29 19.8828 1128.05 0Z"/><path fill="#5E6187" transform="scale(0.409455 0.409856)" d="M1131.62 79.4648C1131.67 83.0897 1131.7 86.7149 1131.71 90.3401L1129.25 90.269L1129.08 81.2748L1129.65 81.1861L1130.06 84.8486C1131.68 83.0298 1130 81.7934 1131.62 79.4648Z"/><path fill="#FEFEFE" transform="scale(0.409455 0.409856)" d="M1007.05 45.183C1014.18 51.6342 1020.95 58.9527 1027.87 65.7231C1043.89 81.3257 1059.7 97.1412 1075.3 113.165C1060.62 128.876 1055.8 142.904 1054.16 163.815C1023.41 163.65 992.658 163.656 961.908 163.832C960.993 163.71 960.636 163.525 959.739 163.222C958.61 160.517 960.586 147.555 960.968 143.473C965.43 108.024 981.801 70.6439 1007.05 45.183Z"/><path fill="#FEFEFE" transform="scale(0.409455 0.409856)" d="M1248 44.8574L1248 163.138L1203.48 163.39C1203.44 141.246 1196.71 128.217 1182.31 112.292C1201.62 91.4532 1227.7 64.339 1248 44.8574Z"/><path fill="#FEFEFE" transform="scale(0.409455 0.409856)" d="M1248 165.229L1248 280.348C1240.16 272.986 1231.25 263.418 1223.65 255.661C1210.25 241.955 1196.75 228.343 1183.16 214.825C1197.07 199.535 1202.68 186.214 1203.05 165.427L1248 165.229Z"/><path fill="#FEFEFE" transform="scale(0.409455 0.409856)" d="M997.175 35.4897C999.969 38.1325 1003.25 41.0901 1005.92 43.7899C984.795 67.1393 969.622 93.0091 962.499 123.848C961.475 128.279 959.601 136.261 959.21 140.767C957.723 147.938 957.348 156.524 956.895 163.888L946.567 163.885C946.282 159.707 946.435 153.147 946.353 148.709C945.021 149.125 945.676 149.147 944.333 148.538L943.636 145.528L945.288 135.441C945.814 136.676 945.896 137.061 946.85 138.054C955.079 95.4419 968.119 67.778 997.175 35.4897Z"/><path fill="#5E6187" transform="scale(0.409455 0.409856)" d="M945.288 135.441C945.814 136.676 945.896 137.061 946.85 138.054C946.709 141.436 946.347 145.401 946.353 148.709C945.021 149.125 945.676 149.147 944.333 148.538L943.636 145.528L945.288 135.441Z"/><path fill="#FEFEFE" transform="scale(0.409455 0.409856)" d="M1183.88 0L1214.84 0L1219.07 0L1248 0L1248 19.9617L1248 22.7649L1248 39.7819C1233.7 25.382 1219.56 16.0726 1201.17 7.29966C1195.86 4.76458 1189.31 2.83923 1184.39 0.271919L1183.88 0Z"/><path fill="#FEFEFE" transform="scale(0.409455 0.409856)" d="M1219.07 0L1248 0L1248 19.9617C1236.51 10.8943 1230.91 7.74229 1219.07 0Z"/><path fill="#3E426E" transform="scale(0.409455 0.409856)" d="M1214.84 0L1219.07 0C1230.91 7.74229 1236.51 10.8943 1248 19.9617L1248 22.7649C1235.19 12.5815 1227.24 8.65038 1214.84 0Z"/><path fill="#FEFEFE" transform="scale(0.409455 0.409856)" d="M1043.43 0L1073.15 0C1065.84 4.39462 1055.61 5.7442 1046.93 11.7711C1030.98 20.9541 1020.07 29.9957 1007.08 42.5269C1004.45 39.7484 1001.46 36.8715 998.739 34.1426C1015.69 17.4803 1023.64 11.9652 1043.43 0Z"/><path fill="#FEFEFE" transform="scale(0.409455 0.409856)" d="M1124.13 107.014C1127.08 106.447 1128.4 106.287 1131.4 107.438C1141.28 106.043 1162.9 115.417 1168.87 123.151L1169.93 124.613C1181.26 130.903 1185.91 151.393 1186.17 163.44C1174.55 163.877 1162.9 163.678 1151.27 163.627C1149.11 163.618 1146.97 163.558 1144.83 163.829C1143.2 162.518 1142.14 158.365 1140.2 155.239L1139.17 153.573C1135.84 151.548 1135.57 151.28 1131.71 150.293L1128.67 150.221C1123.55 150.7 1121.35 154.098 1119.21 154.028L1088.77 123.403C1099.1 113.15 1110.39 109.633 1124.13 107.014Z"/><path fill="#FEFEFE" transform="scale(0.409455 0.409856)" d="M1139.17 153.573C1149 143.363 1158.9 133.222 1168.87 123.151L1169.93 124.613C1181.26 130.903 1185.91 151.393 1186.17 163.44C1174.55 163.877 1162.9 163.678 1151.27 163.627C1149.11 163.618 1146.97 163.558 1144.83 163.829C1143.2 162.518 1142.14 158.365 1140.2 155.239L1139.17 153.573Z"/><path fill="#3E426E" transform="scale(0.409455 0.409856)" d="M1139.17 153.573C1149 143.363 1158.9 133.222 1168.87 123.151L1169.93 124.613C1161.77 134.109 1149.2 146.134 1140.2 155.239L1139.17 153.573Z"/><path fill="#FEFEFE" transform="scale(0.409455 0.409856)" d="M1131.4 107.438C1141.28 106.043 1162.9 115.417 1168.87 123.151C1158.9 133.222 1149 143.363 1139.17 153.573C1135.84 151.548 1135.57 151.28 1131.71 150.293C1131.1 136.603 1132.43 120.832 1131.4 107.438Z"/><path fill="#5E6187" transform="scale(0.409455 0.409856)" d="M1124.13 107.014C1127.08 106.447 1128.4 106.287 1131.4 107.438C1132.43 120.832 1131.1 136.603 1131.71 150.293L1128.67 150.221C1129.35 149.427 1129.45 112.535 1129.32 107.991C1127.66 106.802 1126.48 107.151 1124.13 107.014Z"/><path fill="#FEFEFE" transform="scale(0.409455 0.409856)" d="M1119.94 173.862C1123.06 175.833 1124.88 176.917 1128.56 177.737L1131.65 177.642C1135.22 176.622 1136.19 175.966 1139.41 174.025C1149.28 183.088 1160.42 194.306 1169.86 203.989C1158.9 212.838 1147.12 220.963 1131.96 219.385C1130.79 219.342 1129.75 219.217 1128.61 219.42C1123.75 219.454 1119.87 219.308 1115.02 218.995C1103.85 216.227 1097.93 211.953 1089.43 204.864C1099.15 194.64 1109.77 183.568 1119.94 173.862Z"/><path fill="#FEFEFE" transform="scale(0.409455 0.409856)" d="M1139.41 174.025C1149.28 183.088 1160.42 194.306 1169.86 203.989C1158.9 212.838 1147.12 220.963 1131.96 219.385C1131.15 207.59 1131.65 189.85 1131.65 177.642C1135.22 176.622 1136.19 175.966 1139.41 174.025Z"/><path fill="#7C809E" transform="scale(0.409455 0.409856)" d="M1128.56 177.737L1131.65 177.642C1131.65 189.85 1131.15 207.59 1131.96 219.385C1130.79 219.342 1129.75 219.217 1128.61 219.42C1129.08 217.039 1129.15 179.017 1128.56 177.737Z"/><path fill="#FEFEFE" transform="scale(0.409455 0.409856)" d="M1128.67 150.221L1131.71 150.293C1135.57 151.28 1135.84 151.548 1139.17 153.573L1140.2 155.239C1142.14 158.365 1143.2 162.518 1144.83 163.829L1143.54 164.656L1144.88 165.317C1142.93 166.603 1141.55 170.389 1140.74 172.78L1139.41 174.025C1136.19 175.966 1135.22 176.622 1131.65 177.642L1128.56 177.737C1124.88 176.917 1123.06 175.833 1119.94 173.862L1118.38 172.979C1115.31 174.99 1092.44 199.222 1088.02 203.654C1076.82 191.722 1073.13 181.59 1071.74 165.743C1074.7 165.778 1077.75 165.707 1080.72 165.674C1091.91 164.629 1104.12 165.927 1115.23 164.633C1114.43 164.289 1103.25 163.918 1101.62 163.812C1104.97 163.46 1112.01 163.51 1115.61 163.439C1116.42 160.911 1118.29 157.301 1117.93 154.91L1119.21 154.028C1121.35 154.098 1123.55 150.7 1128.67 150.221Z"/><path fill="#1F255E" transform="scale(0.409455 0.409856)" d="M1128.67 150.221L1131.71 150.293C1135.57 151.28 1135.84 151.548 1139.17 153.573L1140.2 155.239C1142.14 158.365 1143.2 162.518 1144.83 163.829L1143.54 164.656L1144.88 165.317C1142.93 166.603 1141.55 170.389 1140.74 172.78L1139.41 174.025C1136.19 175.966 1135.22 176.622 1131.65 177.642L1128.56 177.737C1124.88 176.917 1123.06 175.833 1119.94 173.862L1118.38 172.979C1117.68 170.471 1116.84 168.188 1115.96 165.738L1080.72 165.674C1091.91 164.629 1104.12 165.927 1115.23 164.633C1114.43 164.289 1103.25 163.918 1101.62 163.812C1104.97 163.46 1112.01 163.51 1115.61 163.439C1116.42 160.911 1118.29 157.301 1117.93 154.91L1119.21 154.028C1121.35 154.098 1123.55 150.7 1128.67 150.221Z"/><path fill="#FEFEFE" transform="scale(0.409455 0.409856)" d="M1087.35 124.921C1095.62 132.663 1103.37 140.96 1111.44 148.908C1113.55 150.98 1115.54 153.164 1117.93 154.91C1118.29 157.301 1116.42 160.911 1115.61 163.439C1112.01 163.51 1104.97 163.46 1101.62 163.812C1094.25 163.265 1079.25 163.711 1071.21 163.652C1072.52 146.946 1076.69 137.476 1087.35 124.921Z"/><path fill="#FEFEFE" transform="scale(0.409455 0.409856)" d="M1144.88 165.317C1154 166.175 1176.28 165.767 1186.06 165.598C1185.58 180.828 1181.4 191.177 1171.07 202.557C1166.63 198.29 1143.44 174.488 1140.74 172.78C1141.55 170.389 1142.93 166.603 1144.88 165.317Z"/><path fill="#FEFEFE" transform="scale(0.409455 0.409856)" d="M1088.08 206.236C1096.69 213.8 1101.82 216.495 1112.48 220.355L1115.02 218.995C1119.87 219.308 1123.75 219.454 1128.61 219.42C1129.75 219.217 1130.79 219.342 1131.96 219.385C1130.71 220.615 1129.32 222.472 1127.62 222.77C1129.79 225.515 1129.34 231.502 1129.37 235.249C1109.66 235.008 1093.26 229.6 1078.8 215.772C1081.92 212.62 1085.01 209.441 1088.08 206.236Z"/><defs><linearGradient id="gradient_4" gradientUnits="userSpaceOnUse" x1="1120.1251" y1="216.34628" x2="1124.3185" y2="223.93893"><stop offset="0" stop-color="#3C3C66"/><stop offset="1" stop-color="#606486"/></linearGradient></defs><path fill="url(#gradient_4)" transform="scale(0.409455 0.409856)" d="M1115.02 218.995C1119.87 219.308 1123.75 219.454 1128.61 219.42C1129.75 219.217 1130.79 219.342 1131.96 219.385C1130.71 220.615 1129.32 222.472 1127.62 222.77C1121.84 222.565 1117.97 221.7 1112.48 220.355L1115.02 218.995Z"/><path fill="#FEFEFE" transform="scale(0.409455 0.409856)" d="M1121.97 92.2836C1124.18 92.1396 1127.2 92.1994 1129.47 92.176C1129.38 96.4963 1129.61 100.663 1129.81 104.972C1113.5 105.055 1099.11 111.3 1087.29 122.418C1084.44 119.314 1081 115.938 1078.03 112.882C1090.42 100.504 1104.82 94.5589 1121.97 92.2836Z"/><path fill="#FEFEFE" transform="scale(0.409455 0.409856)" d="M1056.36 165.414L1069.25 165.567C1072.32 183.069 1074.33 191.402 1086.69 205.024L1081.7 210.312L1077.08 214.654C1062.4 197.53 1058.49 187.749 1056.36 165.414Z"/><path fill="#FEFEFE" transform="scale(0.409455 0.409856)" d="M1076.66 114.445C1079.76 117.116 1083.17 120.738 1086.09 123.688C1079.16 130.997 1073.8 140.131 1071.33 149.983C1070.53 153.138 1069.98 161.492 1068.55 163.507L1067.17 163.693L1056.03 163.803C1057.75 143.765 1062.43 129.381 1076.66 114.445Z"/><path fill="#FEFEFE" transform="scale(0.409455 0.409856)" d="M1180.72 113.767C1194.44 124.048 1201.18 147.101 1201.11 163.47L1191.79 163.47L1189.45 163.394C1187.66 161.248 1187.61 149.184 1184.93 143.152C1180.66 133.544 1178.58 130.605 1171.85 122.909L1180.72 113.767Z"/><path fill="#FEFEFE" transform="scale(0.409455 0.409856)" d="M1170.59 205.821C1172.55 206.057 1178.81 213.055 1180.5 214.839C1167.38 225.924 1158.27 231.605 1140.88 234.473C1138.19 234.911 1134.42 234.928 1131.61 235.023C1131.46 231.14 1131.78 226.126 1131.95 222.188C1147.84 221.492 1158.8 216.132 1170.59 205.821Z"/><path fill="#FEFEFE" transform="scale(0.409455 0.409856)" d="M1188.39 165.408L1201.15 165.335C1201.32 183.85 1195.49 197.855 1183.28 211.677L1181.88 212.651C1179.63 211.836 1174.33 205.961 1172.3 203.853C1183.37 191.043 1186.89 181.947 1188.39 165.408Z"/><path fill="#FEFEFE" transform="scale(0.409455 0.409856)" d="M1131.6 92.0887C1150.69 92.3731 1165.62 100.049 1179.66 112.262L1174.32 117.867L1170.6 121.659C1158.62 111.744 1147.2 106.216 1131.53 105.228L1131.6 92.0887Z"/><path fill="#FEFEFE" transform="scale(0.409455 0.409856)" d="M1077.02 217.531L1077.39 217.76C1080.92 219.997 1084.09 223.099 1087.64 225.367C1102.27 234.689 1112.76 236.022 1129.36 237.657L1128.86 334.318L1120.21 334.297C1077.17 330.142 1041.97 317.233 1010.65 286.357C1032.61 263.258 1054.73 240.315 1077.02 217.531Z"/><path fill="#FEFEFE" transform="scale(0.409455 0.409856)" d="M964.391 165.623C967.867 165.892 971.432 165.88 974.919 165.839C1001.31 165.531 1027.9 166.232 1054.27 165.351C1056.03 180.839 1058 191.683 1067.01 205.276C1068.62 207.708 1074.71 214.533 1075.5 216.448L1040.03 252.837C1030.26 263.042 1019 275.318 1008.86 284.936C982.303 258.07 963.575 219.077 960.685 181.236C960.283 175.968 958.246 172.301 959.802 166.745C961.35 165.225 961.7 165.713 964.391 165.623Z"/><path fill="#1B1B3B" transform="scale(0.409455 0.409856)" d="M816.771 41.209L817.773 42.8391C806.888 48.7271 795.746 55.5372 784.926 61.7019L723.969 96.0767L532.295 204.235C546.14 224.8 560.748 262.066 566.489 286.009C571.776 307.099 573.792 329.598 575.068 351.254L574.999 355.126L574.146 357.269L572.419 355.45L572.15 355.807C569.18 355.176 564.72 355.353 561.573 355.358L561.643 351.465L559.355 351.412C559.896 347.94 559.753 344.395 558.934 340.977C558.929 326.82 556.973 316.395 555.393 302.47C554.402 295.595 551.163 284.527 549.378 277.322C543.924 259.79 531.284 226.146 519.811 211.649L518.511 210.326C516.569 203.476 496.843 179.533 491.984 173.983C452.269 129.388 398.999 99.0884 340.377 87.7489C325.3 84.9519 309.869 84.2789 294.582 83.278C293.289 83.1084 292.958 83.9457 290.772 83.4163L290.923 80.6943L294.283 80.6512L294.351 70.6864L290.598 70.6781C242.891 69.7242 191.207 85.4636 150.007 108.827L149.361 107.128C189.841 82.8768 243.388 68.6428 290.594 68.4153L294.677 68.4477C311.446 68.5362 334.208 71.6411 350.56 75.112C405.689 87.334 456.022 115.466 495.322 156.023C509.441 170.854 520.396 185.673 531.529 202.749C544.455 195.772 558.699 186.559 571.991 179.088C608.076 159.196 644.053 139.107 679.92 118.824C725.056 93.2854 772.389 67.8519 816.771 41.209Z"/><path fill="#FEFEFE" transform="scale(0.409455 0.409856)" d="M294.351 70.6864C362.303 69.7788 438.222 102.447 486.307 149.778C501.255 164.492 519.353 185.744 529.622 203.944L520.648 208.912C475.784 141.853 420.693 102.799 340.451 86.0025C326.11 83.0007 309.042 82.0929 294.283 80.6512L294.351 70.6864Z"/><path fill="#FEFEFE" transform="scale(0.409455 0.409856)" d="M521.594 210.354C524.813 208.436 527.376 206.783 530.914 205.458C547.071 231.666 556.982 257.293 564.612 286.918L566.489 286.009C571.776 307.099 573.792 329.598 575.068 351.254L574.999 355.126L574.146 357.269L572.419 355.45L572.15 355.807C569.18 355.176 564.72 355.353 561.573 355.358L561.643 351.465L559.355 351.412C559.896 347.94 559.753 344.395 558.934 340.977C558.929 326.82 556.973 316.395 555.393 302.47C554.402 295.595 551.163 284.527 549.378 277.322L551.119 276.059C543.974 254.458 534.291 229.417 521.594 210.354Z"/><path fill="#3E426E" transform="scale(0.409455 0.409856)" d="M566.489 286.009C571.776 307.099 573.792 329.598 575.068 351.254L574.999 355.126L574.146 357.269L572.419 355.45L572.261 351.183C572.406 326.859 568.678 310.032 564.612 286.918L566.489 286.009Z"/><path fill="#5E6187" transform="scale(0.409455 0.409856)" d="M557.292 301.296C560.566 316.854 562.566 335.587 561.643 351.465L559.355 351.412C559.896 347.94 559.753 344.395 558.934 340.977C558.929 326.82 556.973 316.395 555.393 302.47L556.484 302.546L557.292 301.296Z"/><path fill="#3E426E" transform="scale(0.409455 0.409856)" d="M551.119 276.059C554.116 285.08 555.611 291.924 557.292 301.296L556.484 302.546L555.393 302.47C554.402 295.595 551.163 284.527 549.378 277.322L551.119 276.059Z"/><path fill="#7C809E" transform="scale(0.409455 0.409856)" d="M561.643 351.465C565.563 351.164 568.326 351.113 572.261 351.183L572.419 355.45L572.15 355.807C569.18 355.176 564.72 355.353 561.573 355.358L561.643 351.465Z"/><path fill="#FEFEFE" transform="scale(0.409455 0.409856)" d="M1248 288.116L1248 303.865L1248 307.199C1245.47 309.248 1241.69 312.508 1239.08 314.217C1217.54 328.794 1206.47 334.196 1181.79 342.89C1168.04 346.504 1146.82 351.801 1132.56 351.207L1131.97 351.622L1131.64 351.549C1131.39 349.779 1131.67 349.568 1130.7 348.471L1129.06 349.035C1128.88 344.4 1128.93 340.906 1129.1 336.302L1132.23 336.261C1150.18 336.56 1157.37 334.683 1174.49 330.052C1197.97 322.408 1208.25 317.657 1228.73 303.835C1235.52 299.06 1241.96 293.807 1248 288.116Z"/><defs><linearGradient id="gradient_5" gradientUnits="userSpaceOnUse" x1="1160.5232" y1="353.1221" x2="1151.8989" y2="338.42136"><stop offset="0" stop-color="#3A3C5D"/><stop offset="1" stop-color="#8F93BC"/></linearGradient></defs><path fill="url(#gradient_5)" transform="scale(0.409455 0.409856)" d="M1129.1 336.302L1132.23 336.261L1132.04 337.17L1132.21 347.541C1151.73 346.926 1160.03 345.675 1179.25 341.45L1181.79 342.89C1168.04 346.504 1146.82 351.801 1132.56 351.207L1131.97 351.622L1131.64 351.549C1131.39 349.779 1131.67 349.568 1130.7 348.471L1129.06 349.035C1128.88 344.4 1128.93 340.906 1129.1 336.302Z"/><path fill="#7C809E" transform="scale(0.409455 0.409856)" d="M1129.1 336.302L1132.23 336.261L1132.04 337.17C1130.82 341.11 1131.84 347.169 1132.56 351.207L1131.97 351.622L1131.64 351.549C1131.39 349.779 1131.67 349.568 1130.7 348.471L1129.06 349.035C1128.88 344.4 1128.93 340.906 1129.1 336.302Z"/><path fill="#1B1B3B" transform="scale(0.409455 0.409856)" d="M1237.43 312.245L1239.08 314.217C1217.54 328.794 1206.47 334.196 1181.79 342.89L1179.25 341.45C1201.08 334.546 1219.26 326.694 1237.43 312.245Z"/><path fill="#5E6187" transform="scale(0.409455 0.409856)" d="M1237.43 312.245C1241.11 309.077 1244.1 306.75 1248 303.865L1248 307.199C1245.47 309.248 1241.69 312.508 1239.08 314.217L1237.43 312.245Z"/><path fill="#FEFEFE" transform="scale(0.409455 0.409856)" d="M1009.38 287.92L1010.33 288.853C1041.06 318.661 1086.2 336.951 1129.1 336.302C1128.93 340.906 1128.88 344.4 1129.06 349.035C1119.8 347.484 1109.52 347.811 1099.67 346.05C1057.96 338.597 1031.76 324.509 1001.07 296.758C1004.2 292.895 1005.82 291.267 1009.38 287.92Z"/><path fill="#FEFEFE" transform="scale(0.409455 0.409856)" d="M946.267 166.111C949.534 165.42 953.234 165.647 956.606 165.705C957.515 174.358 958.402 184.804 959.935 193.255C966.075 228.455 982.745 260.965 1007.74 286.489C1005.15 289.365 1002.19 292.804 999.417 295.439C981.77 275.826 968.387 258.468 958.899 233.295C958.599 231.683 956.245 224.912 955.631 223.019C952.451 213.219 949.683 204.955 948.654 194.66C948.859 192.574 946.962 179.866 946.567 176.913C946.267 174.453 946.321 168.809 946.267 166.111Z"/><path fill="#1B1B3B" transform="scale(0.409455 0.409856)" d="M959.21 140.767L959.65 146.144L960.063 146.13L960.968 143.473C960.586 147.555 958.61 160.517 959.739 163.222C960.636 163.525 960.993 163.71 961.908 163.832L959.474 164.476C960.552 165.268 962.906 165.282 964.391 165.623C961.7 165.713 961.35 165.225 959.802 166.745C958.246 172.301 960.283 175.968 960.685 181.236C963.575 219.077 982.303 258.07 1008.86 284.936C1019 275.318 1030.26 263.042 1040.03 252.837L1075.5 216.448L1077.02 217.531C1054.73 240.315 1032.61 263.258 1010.65 286.357C1041.97 317.233 1077.17 330.142 1120.21 334.297C1122.25 334.797 1136.03 334.938 1137.53 334.328C1150.58 332.767 1160.46 331.859 1173.18 328.585L1174.49 330.052C1157.37 334.683 1150.18 336.56 1132.23 336.261L1129.1 336.302C1086.2 336.951 1041.06 318.661 1010.33 288.853L1009.38 287.92C1005.82 291.267 1004.2 292.895 1001.07 296.758C1031.76 324.509 1057.96 338.597 1099.67 346.05C1109.52 347.811 1119.8 347.484 1129.06 349.035L1130.7 348.471C1131.67 349.568 1131.39 349.779 1131.64 351.549C1130.27 351.239 1129.35 351.077 1127.95 350.889C1120.42 351.495 1109.09 349.278 1101.49 348.23C1061.07 342.657 1030.43 325.457 1000.19 298.951L998.662 299.193C998.382 298.858 997.873 297.934 997.622 297.512C998.006 295.954 991.469 289.708 989.969 287.981C976.312 272.407 965.318 254.685 957.432 235.529L958.899 233.295C968.387 258.468 981.77 275.826 999.417 295.439C1002.19 292.804 1005.15 289.365 1007.74 286.489C982.745 260.965 966.075 228.455 959.935 193.255C958.402 184.804 957.515 174.358 956.606 165.705C953.234 165.647 949.534 165.42 946.267 166.111C944.271 166.536 945.246 166.577 943.244 165.877C935.989 164.907 921.969 166.71 914.219 165.659C912.906 165.481 913.186 165.36 912.228 164.023L946.567 163.885L956.895 163.888C957.348 156.524 957.723 147.938 959.21 140.767Z"/><path fill="#9293AC" transform="scale(0.409455 0.409856)" d="M575.068 351.254C584.845 351.354 660.352 350.14 663.307 352.02L664.098 353.479C663.705 354.343 663.339 355.278 662.15 355.356C636.902 357.021 599.76 354.396 575.33 355.801L574.999 355.126L575.068 351.254Z"/><path fill="#0E0E1E" transform="scale(0.409455 0.409856)" d="M490.152 554.278C489.946 552.716 489.836 553.443 490.483 552.018L491.667 552.701C538.103 604.258 570.942 657.286 581.038 727.267L579.599 728.954C571.935 665.832 534.751 599.17 490.152 554.278Z"/><defs><linearGradient id="gradient_6" gradientUnits="userSpaceOnUse" x1="31.927731" y1="63.069527" x2="7.7877445" y2="72.522194"><stop offset="0" stop-color="#585774"/><stop offset="1" stop-color="#7A7891"/></linearGradient></defs><path fill="url(#gradient_6)" transform="scale(0.409455 0.409856)" d="M0 40.5576C9.43454 41.359 11.8946 47.1575 8.17283 55.5753C19.5205 66.446 35.5069 81.8127 45.647 93.719C43.8666 93.0254 43.0652 92.6918 41.2135 92.2924C30.4867 82.4397 17.1187 68.149 6.52935 57.5154L0 59.088L0 56.63L0 42.8038L0 40.5576Z"/><path fill="#FEFEFE" transform="scale(0.409455 0.409856)" d="M0 42.8038C9.80954 45.6822 9.28524 54.0014 0 56.63L0 42.8038Z"/><path fill="#5E6187" transform="scale(0.409455 0.409856)" d="M822.613 37.4766C820.156 19.7306 838.238 21.2235 839.992 34.3004C840.452 37.7293 834.542 44.1795 830.904 43.2691C827.91 42.9904 826.448 41.5261 824.256 39.7677L817.773 42.8391L816.771 41.209C818.712 39.9442 820.63 38.6746 822.613 37.4766Z"/><path fill="#FEFEFE" transform="scale(0.409455 0.409856)" d="M829.615 26.6969C838.503 26.8052 840.367 35.6266 831.892 41.058C828.01 40.2146 824.139 36.2498 825.011 32.152C825.675 29.0308 827.232 28.3697 829.615 26.6969Z"/><path fill="#1F255E" transform="scale(0.409455 0.409856)" d="M766.481 734.622C767.697 734.677 768.548 734.785 769.757 734.625C772.005 735.805 774.184 736.853 775.454 739.198C777.251 742.519 781.783 741.665 784.871 742.268C782.857 742.701 778.74 742.723 777.777 743.217C775.488 747.949 774.932 749.72 769.74 751.556L766.681 752.676C765.619 751.596 762.963 750.325 761.522 749.55L758.649 743.615L758.888 742.096C761.566 738.087 761.68 736.368 766.481 734.622Z"/><defs><linearGradient id="gradient_7" gradientUnits="userSpaceOnUse" x1="562.23578" y1="737.53394" x2="586.96869" y2="741.5293"><stop offset="0" stop-color="#21184B"/><stop offset="1" stop-color="#2C3870"/></linearGradient></defs><path fill="url(#gradient_7)" transform="scale(0.409455 0.409856)" d="M574.065 739.405C575.974 736.535 576.892 734.835 580.189 733.623L582.835 733.818C597.92 740.773 579.196 757.446 574.13 741.711L562.47 741.507L561.121 739.794L574.065 739.405Z"/><path fill="#9293AC" transform="scale(0.409455 0.409856)" d="M290.594 68.4153C290.548 61.8337 289.859 24.706 291.31 22.2832L292.164 21.8695C293.714 22.8073 294.107 24.6318 294.207 26.4035C294.993 40.2909 294.004 54.566 294.677 68.4477L290.594 68.4153Z"/><defs><linearGradient id="gradient_8" gradientUnits="userSpaceOnUse" x1="731.42767" y1="750.7865" x2="706.42761" y2="735.67908"><stop offset="0" stop-color="#4D4582"/><stop offset="1" stop-color="#8A92AA"/></linearGradient></defs><path fill="url(#gradient_8)" transform="scale(0.409455 0.409856)" d="M747.808 743.715C737.411 745.188 724.426 743.631 713.764 745.099C709.653 745.664 704.633 745.857 700.867 743.898L701.481 742.301C705.853 741.281 746.183 741.924 752.784 741.992L758.888 742.096L758.649 743.615C755.038 743.801 751.421 743.834 747.808 743.715Z"/><path fill="#1F255E" transform="scale(0.409455 0.409856)" d="M752.784 741.992L758.888 742.096L758.649 743.615C755.038 743.801 751.421 743.834 747.808 743.715C744.84 743.341 740.939 743.232 737.69 742.887C742.092 742.817 748.652 742.99 752.784 741.992Z"/><path fill="#5E6187" transform="scale(0.409455 0.409856)" d="M946.099 198.533C947.058 196.233 946.83 195.576 948.654 194.66C949.683 204.955 952.451 213.219 955.631 223.019C956.245 224.912 958.599 231.683 958.899 233.295L957.432 235.529C951.895 224.25 949.277 210.735 946.099 198.533Z"/><path fill="#1F255E" transform="scale(0.409455 0.409856)" d="M769.94 783.736C770.217 782.506 770.234 782.076 770.951 781.004L772.065 782.332C774.624 800.176 777.907 814.47 781.921 832L779.979 832C775.582 814.098 772.864 802.048 769.94 783.736Z"/><path fill="#7C809E" transform="scale(0.409455 0.409856)" d="M1127.95 350.889C1129.35 351.077 1130.27 351.239 1131.64 351.549L1131.97 351.622C1131.6 356.878 1133.29 378.552 1131.06 381.16C1125.55 378.697 1131.17 355.756 1127.95 350.889Z"/><path fill="#7C809E" transform="scale(0.409455 0.409856)" d="M766.681 752.676L769.74 751.556C770.441 761.55 771.027 772.434 772.065 782.332L770.951 781.004C770.234 782.076 770.217 782.506 769.94 783.736C768.491 775.152 765.98 761.103 766.681 752.676Z"/><path fill="#3E426E" transform="scale(0.409455 0.409856)" d="M1056.56 429.702C1056.9 420.646 1055.34 395.117 1057.94 388.977C1059 392.731 1058.36 423.911 1058.54 430.192L1056.56 429.702Z"/><path fill="#9293AC" transform="scale(0.409455 0.409856)" d="M943.636 145.528L944.333 148.538C945.676 149.147 945.021 149.125 946.353 148.709C946.435 153.147 946.282 159.707 946.567 163.885L912.228 164.023C916.256 162.782 937.118 163.293 942.654 163.338C942.322 156.807 942.848 151.96 943.636 145.528Z"/><path fill="#5E6187" transform="scale(0.409455 0.409856)" d="M766.481 734.622C767.017 727.115 767.577 716.733 769.28 709.621L770.736 710.306L771.229 710.016C771.04 712.762 769.357 733.54 769.757 734.625C768.548 734.785 767.697 734.677 766.481 734.622Z"/><path fill="#9293AC" transform="scale(0.409455 0.409856)" d="M946.567 176.913C946.962 179.866 948.859 192.574 948.654 194.66C946.83 195.576 947.058 196.233 946.099 198.533C944.746 192.582 943.694 187.844 943.903 181.663L944.819 181.798C946.143 180.417 946.184 178.865 946.567 176.913Z"/><path fill="#3E426E" transform="scale(0.409455 0.409856)" d="M997.622 297.512C997.873 297.934 998.382 298.858 998.662 299.193C995.56 302.856 991.281 308.57 987.043 310.526L986.373 310.196C987.415 306.194 994.438 300.456 997.622 297.512Z"/><path fill="#5E6187" transform="scale(0.409455 0.409856)" d="M943.244 165.877C945.246 166.577 944.271 166.536 946.267 166.111C946.321 168.809 946.267 174.453 946.567 176.913C946.184 178.865 946.143 180.417 944.819 181.798L943.903 181.663C943.845 176.601 943.476 170.977 943.244 165.877Z"/><path fill="#3E426E" transform="scale(0.409455 0.409856)" d="M581.038 727.267C581.443 728.926 582.184 732.405 582.835 733.818L580.189 733.623L579.599 728.954L581.038 727.267Z"/></svg>